STARTFONT 2.1
FONT -Rad Pro Sans 8-Regular-R-Regular--14-14-75-75-c-80-iso10646-1
SIZE 14 75 75
FONTBOUNDINGBOX 11 17 -1 -3
STARTPROPERTIES 9
FAMILY_NAME "Rad Pro Sans 8"
WEIGHT_NAME "Regular"
FONT_VERSION "Version 1.0"
COPYRIGHT "(C) 2023-2025 Gissio"
FONT_ASCENT 11
FONT_DESCENT 3
POINT_SIZE 14
X_HEIGHT 6
CAP_HEIGHT 8
ENDPROPERTIES
CHARS 502
STARTCHAR U+0020
ENCODING 32
SWIDTH 272 0
DWIDTH 3 0
BBX 0 0 0 0
BITMAP
ENDCHAR
STARTCHAR U+0021
ENCODING 33
SWIDTH 181 0
DWIDTH 2 0
BBX 1 8 0 0
BITMAP
80
80
80
80
80
80
00
80
ENDCHAR
STARTCHAR U+0022
ENCODING 34
SWIDTH 363 0
DWIDTH 4 0
BBX 3 3 0 5
BITMAP
A0
A0
A0
ENDCHAR
STARTCHAR U+0023
ENCODING 35
SWIDTH 636 0
DWIDTH 7 0
BBX 7 8 0 0
BITMAP
14
14
7E
28
28
FC
50
50
ENDCHAR
STARTCHAR U+0024
ENCODING 36
SWIDTH 545 0
DWIDTH 6 0
BBX 5 10 0 -1
BITMAP
20
70
88
80
70
08
08
88
70
20
ENDCHAR
STARTCHAR U+0025
ENCODING 37
SWIDTH 818 0
DWIDTH 9 0
BBX 8 8 0 0
BITMAP
60
92
94
68
16
29
49
06
ENDCHAR
STARTCHAR U+0026
ENCODING 38
SWIDTH 636 0
DWIDTH 7 0
BBX 6 8 0 0
BITMAP
60
90
90
60
94
88
88
74
ENDCHAR
STARTCHAR U+0027
ENCODING 39
SWIDTH 181 0
DWIDTH 2 0
BBX 1 2 0 6
BITMAP
80
80
ENDCHAR
STARTCHAR U+0028
ENCODING 40
SWIDTH 363 0
DWIDTH 4 0
BBX 3 11 0 -2
BITMAP
20
40
40
80
80
80
80
80
40
40
20
ENDCHAR
STARTCHAR U+0029
ENCODING 41
SWIDTH 363 0
DWIDTH 4 0
BBX 3 11 0 -2
BITMAP
80
40
40
20
20
20
20
20
40
40
80
ENDCHAR
STARTCHAR U+002A
ENCODING 42
SWIDTH 545 0
DWIDTH 6 0
BBX 5 5 0 3
BITMAP
20
20
F8
20
50
ENDCHAR
STARTCHAR U+002B
ENCODING 43
SWIDTH 545 0
DWIDTH 6 0
BBX 5 5 0 1
BITMAP
20
20
F8
20
20
ENDCHAR
STARTCHAR U+002C
ENCODING 44
SWIDTH 181 0
DWIDTH 2 0
BBX 2 3 -1 -2
BITMAP
40
40
80
ENDCHAR
STARTCHAR U+002D
ENCODING 45
SWIDTH 363 0
DWIDTH 4 0
BBX 3 1 0 3
BITMAP
E0
ENDCHAR
STARTCHAR U+002E
ENCODING 46
SWIDTH 181 0
DWIDTH 2 0
BBX 1 1 0 0
BITMAP
80
ENDCHAR
STARTCHAR U+002F
ENCODING 47
SWIDTH 454 0
DWIDTH 5 0
BBX 4 9 0 -1
BITMAP
10
10
20
20
20
40
40
80
80
ENDCHAR
STARTCHAR U+0030
ENCODING 48
SWIDTH 545 0
DWIDTH 6 0
BBX 5 8 0 0
BITMAP
70
88
88
88
88
88
88
70
ENDCHAR
STARTCHAR U+0031
ENCODING 49
SWIDTH 545 0
DWIDTH 6 0
BBX 3 8 1 0
BITMAP
20
E0
20
20
20
20
20
20
ENDCHAR
STARTCHAR U+0032
ENCODING 50
SWIDTH 545 0
DWIDTH 6 0
BBX 5 8 0 0
BITMAP
70
88
08
10
20
40
80
F8
ENDCHAR
STARTCHAR U+0033
ENCODING 51
SWIDTH 545 0
DWIDTH 6 0
BBX 5 8 0 0
BITMAP
70
88
08
30
08
08
88
70
ENDCHAR
STARTCHAR U+0034
ENCODING 52
SWIDTH 545 0
DWIDTH 6 0
BBX 5 8 0 0
BITMAP
10
30
50
50
90
F8
10
10
ENDCHAR
STARTCHAR U+0035
ENCODING 53
SWIDTH 545 0
DWIDTH 6 0
BBX 5 8 0 0
BITMAP
F8
80
80
F0
08
08
88
70
ENDCHAR
STARTCHAR U+0036
ENCODING 54
SWIDTH 545 0
DWIDTH 6 0
BBX 5 8 0 0
BITMAP
30
40
80
F0
88
88
88
70
ENDCHAR
STARTCHAR U+0037
ENCODING 55
SWIDTH 545 0
DWIDTH 6 0
BBX 5 8 0 0
BITMAP
F8
08
10
10
20
20
40
40
ENDCHAR
STARTCHAR U+0038
ENCODING 56
SWIDTH 545 0
DWIDTH 6 0
BBX 5 8 0 0
BITMAP
70
88
88
70
88
88
88
70
ENDCHAR
STARTCHAR U+0039
ENCODING 57
SWIDTH 545 0
DWIDTH 6 0
BBX 5 8 0 0
BITMAP
70
88
88
88
78
08
10
60
ENDCHAR
STARTCHAR U+003A
ENCODING 58
SWIDTH 181 0
DWIDTH 2 0
BBX 1 6 0 0
BITMAP
80
00
00
00
00
80
ENDCHAR
STARTCHAR U+003B
ENCODING 59
SWIDTH 272 0
DWIDTH 3 0
BBX 2 8 0 -2
BITMAP
40
00
00
00
00
40
40
80
ENDCHAR
STARTCHAR U+003C
ENCODING 60
SWIDTH 545 0
DWIDTH 6 0
BBX 5 5 0 1
BITMAP
18
60
80
60
18
ENDCHAR
STARTCHAR U+003D
ENCODING 61
SWIDTH 454 0
DWIDTH 5 0
BBX 4 3 0 2
BITMAP
F0
00
F0
ENDCHAR
STARTCHAR U+003E
ENCODING 62
SWIDTH 545 0
DWIDTH 6 0
BBX 5 5 0 1
BITMAP
C0
30
08
30
C0
ENDCHAR
STARTCHAR U+003F
ENCODING 63
SWIDTH 545 0
DWIDTH 6 0
BBX 5 8 0 0
BITMAP
70
88
08
10
20
20
00
20
ENDCHAR
STARTCHAR U+0040
ENCODING 64
SWIDTH 818 0
DWIDTH 9 0
BBX 8 10 0 -2
BITMAP
3C
42
99
A5
A5
A5
AD
96
40
3E
ENDCHAR
STARTCHAR U+0041
ENCODING 65
SWIDTH 727 0
DWIDTH 8 0
BBX 7 8 0 0
BITMAP
10
10
28
28
44
7C
82
82
ENDCHAR
STARTCHAR U+0042
ENCODING 66
SWIDTH 545 0
DWIDTH 6 0
BBX 5 8 0 0
BITMAP
F0
88
88
F0
88
88
88
F0
ENDCHAR
STARTCHAR U+0043
ENCODING 67
SWIDTH 636 0
DWIDTH 7 0
BBX 6 8 0 0
BITMAP
78
84
84
80
80
84
84
78
ENDCHAR
STARTCHAR U+0044
ENCODING 68
SWIDTH 636 0
DWIDTH 7 0
BBX 6 8 0 0
BITMAP
F0
88
84
84
84
84
88
F0
ENDCHAR
STARTCHAR U+0045
ENCODING 69
SWIDTH 545 0
DWIDTH 6 0
BBX 5 8 0 0
BITMAP
F8
80
80
F0
80
80
80
F8
ENDCHAR
STARTCHAR U+0046
ENCODING 70
SWIDTH 545 0
DWIDTH 6 0
BBX 5 8 0 0
BITMAP
F8
80
80
F0
80
80
80
80
ENDCHAR
STARTCHAR U+0047
ENCODING 71
SWIDTH 636 0
DWIDTH 7 0
BBX 6 8 0 0
BITMAP
78
84
84
80
9C
84
84
78
ENDCHAR
STARTCHAR U+0048
ENCODING 72
SWIDTH 636 0
DWIDTH 7 0
BBX 6 8 0 0
BITMAP
84
84
84
FC
84
84
84
84
ENDCHAR
STARTCHAR U+0049
ENCODING 73
SWIDTH 181 0
DWIDTH 2 0
BBX 1 8 0 0
BITMAP
80
80
80
80
80
80
80
80
ENDCHAR
STARTCHAR U+004A
ENCODING 74
SWIDTH 545 0
DWIDTH 6 0
BBX 5 8 0 0
BITMAP
08
08
08
08
08
08
88
70
ENDCHAR
STARTCHAR U+004B
ENCODING 75
SWIDTH 636 0
DWIDTH 7 0
BBX 6 8 0 0
BITMAP
84
88
90
A0
D0
88
88
84
ENDCHAR
STARTCHAR U+004C
ENCODING 76
SWIDTH 545 0
DWIDTH 6 0
BBX 5 8 0 0
BITMAP
80
80
80
80
80
80
80
F8
ENDCHAR
STARTCHAR U+004D
ENCODING 77
SWIDTH 727 0
DWIDTH 8 0
BBX 7 8 0 0
BITMAP
82
82
C6
C6
AA
AA
92
92
ENDCHAR
STARTCHAR U+004E
ENCODING 78
SWIDTH 636 0
DWIDTH 7 0
BBX 6 8 0 0
BITMAP
84
C4
C4
A4
94
8C
8C
84
ENDCHAR
STARTCHAR U+004F
ENCODING 79
SWIDTH 636 0
DWIDTH 7 0
BBX 6 8 0 0
BITMAP
78
84
84
84
84
84
84
78
ENDCHAR
STARTCHAR U+0050
ENCODING 80
SWIDTH 636 0
DWIDTH 7 0
BBX 6 8 0 0
BITMAP
F8
84
84
84
F8
80
80
80
ENDCHAR
STARTCHAR U+0051
ENCODING 81
SWIDTH 636 0
DWIDTH 7 0
BBX 6 9 0 -1
BITMAP
78
84
84
84
84
84
84
78
0C
ENDCHAR
STARTCHAR U+0052
ENCODING 82
SWIDTH 545 0
DWIDTH 6 0
BBX 5 8 0 0
BITMAP
F0
88
88
88
F0
90
88
88
ENDCHAR
STARTCHAR U+0053
ENCODING 83
SWIDTH 545 0
DWIDTH 6 0
BBX 5 8 0 0
BITMAP
70
88
80
70
08
08
88
70
ENDCHAR
STARTCHAR U+0054
ENCODING 84
SWIDTH 727 0
DWIDTH 8 0
BBX 7 8 0 0
BITMAP
FE
10
10
10
10
10
10
10
ENDCHAR
STARTCHAR U+0055
ENCODING 85
SWIDTH 636 0
DWIDTH 7 0
BBX 6 8 0 0
BITMAP
84
84
84
84
84
84
84
78
ENDCHAR
STARTCHAR U+0056
ENCODING 86
SWIDTH 727 0
DWIDTH 8 0
BBX 7 8 0 0
BITMAP
82
82
44
44
28
28
10
10
ENDCHAR
STARTCHAR U+0057
ENCODING 87
SWIDTH 909 0
DWIDTH 10 0
BBX 9 8 0 0
BITMAP
8880
8880
4900
5500
5500
2200
2200
2200
ENDCHAR
STARTCHAR U+0058
ENCODING 88
SWIDTH 636 0
DWIDTH 7 0
BBX 6 8 0 0
BITMAP
84
48
48
30
30
48
48
84
ENDCHAR
STARTCHAR U+0059
ENCODING 89
SWIDTH 727 0
DWIDTH 8 0
BBX 7 8 0 0
BITMAP
82
44
44
28
10
10
10
10
ENDCHAR
STARTCHAR U+005A
ENCODING 90
SWIDTH 636 0
DWIDTH 7 0
BBX 6 8 0 0
BITMAP
FC
04
08
10
20
40
80
FC
ENDCHAR
STARTCHAR U+005B
ENCODING 91
SWIDTH 272 0
DWIDTH 3 0
BBX 2 11 0 -2
BITMAP
C0
80
80
80
80
80
80
80
80
80
C0
ENDCHAR
STARTCHAR U+005C
ENCODING 92
SWIDTH 454 0
DWIDTH 5 0
BBX 4 9 0 -1
BITMAP
80
80
40
40
40
20
20
10
10
ENDCHAR
STARTCHAR U+005D
ENCODING 93
SWIDTH 272 0
DWIDTH 3 0
BBX 2 11 0 -2
BITMAP
C0
40
40
40
40
40
40
40
40
40
C0
ENDCHAR
STARTCHAR U+005E
ENCODING 94
SWIDTH 545 0
DWIDTH 6 0
BBX 5 4 0 4
BITMAP
20
50
50
88
ENDCHAR
STARTCHAR U+005F
ENCODING 95
SWIDTH 545 0
DWIDTH 6 0
BBX 5 1 0 -1
BITMAP
F8
ENDCHAR
STARTCHAR U+0060
ENCODING 96
SWIDTH 272 0
DWIDTH 3 0
BBX 2 2 0 6
BITMAP
80
40
ENDCHAR
STARTCHAR U+0061
ENCODING 97
SWIDTH 545 0
DWIDTH 6 0
BBX 5 6 0 0
BITMAP
70
88
78
88
88
78
ENDCHAR
STARTCHAR U+0062
ENCODING 98
SWIDTH 545 0
DWIDTH 6 0
BBX 5 8 0 0
BITMAP
80
80
F0
88
88
88
88
F0
ENDCHAR
STARTCHAR U+0063
ENCODING 99
SWIDTH 545 0
DWIDTH 6 0
BBX 5 6 0 0
BITMAP
70
88
80
80
88
70
ENDCHAR
STARTCHAR U+0064
ENCODING 100
SWIDTH 545 0
DWIDTH 6 0
BBX 5 8 0 0
BITMAP
08
08
78
88
88
88
88
78
ENDCHAR
STARTCHAR U+0065
ENCODING 101
SWIDTH 545 0
DWIDTH 6 0
BBX 5 6 0 0
BITMAP
70
88
F8
80
88
70
ENDCHAR
STARTCHAR U+0066
ENCODING 102
SWIDTH 363 0
DWIDTH 4 0
BBX 4 9 0 0
BITMAP
30
40
40
E0
40
40
40
40
40
ENDCHAR
STARTCHAR U+0067
ENCODING 103
SWIDTH 545 0
DWIDTH 6 0
BBX 5 8 0 -2
BITMAP
78
88
88
88
88
78
08
70
ENDCHAR
STARTCHAR U+0068
ENCODING 104
SWIDTH 545 0
DWIDTH 6 0
BBX 5 8 0 0
BITMAP
80
80
F0
88
88
88
88
88
ENDCHAR
STARTCHAR U+0069
ENCODING 105
SWIDTH 181 0
DWIDTH 2 0
BBX 1 8 0 0
BITMAP
80
00
80
80
80
80
80
80
ENDCHAR
STARTCHAR U+006A
ENCODING 106
SWIDTH 181 0
DWIDTH 2 0
BBX 2 10 -1 -2
BITMAP
40
00
40
40
40
40
40
40
40
80
ENDCHAR
STARTCHAR U+006B
ENCODING 107
SWIDTH 545 0
DWIDTH 6 0
BBX 5 8 0 0
BITMAP
80
80
88
90
A0
D0
90
88
ENDCHAR
STARTCHAR U+006C
ENCODING 108
SWIDTH 181 0
DWIDTH 2 0
BBX 1 8 0 0
BITMAP
80
80
80
80
80
80
80
80
ENDCHAR
STARTCHAR U+006D
ENCODING 109
SWIDTH 909 0
DWIDTH 10 0
BBX 9 6 0 0
BITMAP
B700
C880
8880
8880
8880
8880
ENDCHAR
STARTCHAR U+006E
ENCODING 110
SWIDTH 545 0
DWIDTH 6 0
BBX 5 6 0 0
BITMAP
B0
C8
88
88
88
88
ENDCHAR
STARTCHAR U+006F
ENCODING 111
SWIDTH 545 0
DWIDTH 6 0
BBX 5 6 0 0
BITMAP
70
88
88
88
88
70
ENDCHAR
STARTCHAR U+0070
ENCODING 112
SWIDTH 545 0
DWIDTH 6 0
BBX 5 8 0 -2
BITMAP
F0
88
88
88
88
F0
80
80
ENDCHAR
STARTCHAR U+0071
ENCODING 113
SWIDTH 545 0
DWIDTH 6 0
BBX 5 8 0 -2
BITMAP
78
88
88
88
88
78
08
08
ENDCHAR
STARTCHAR U+0072
ENCODING 114
SWIDTH 363 0
DWIDTH 4 0
BBX 3 6 0 0
BITMAP
A0
C0
80
80
80
80
ENDCHAR
STARTCHAR U+0073
ENCODING 115
SWIDTH 545 0
DWIDTH 6 0
BBX 5 6 0 0
BITMAP
70
88
70
08
88
70
ENDCHAR
STARTCHAR U+0074
ENCODING 116
SWIDTH 363 0
DWIDTH 4 0
BBX 3 7 0 0
BITMAP
40
E0
40
40
40
40
20
ENDCHAR
STARTCHAR U+0075
ENCODING 117
SWIDTH 545 0
DWIDTH 6 0
BBX 5 6 0 0
BITMAP
88
88
88
88
98
68
ENDCHAR
STARTCHAR U+0076
ENCODING 118
SWIDTH 545 0
DWIDTH 6 0
BBX 5 6 0 0
BITMAP
88
88
50
50
20
20
ENDCHAR
STARTCHAR U+0077
ENCODING 119
SWIDTH 909 0
DWIDTH 10 0
BBX 9 6 0 0
BITMAP
8880
8880
5500
5500
2200
2200
ENDCHAR
STARTCHAR U+0078
ENCODING 120
SWIDTH 545 0
DWIDTH 6 0
BBX 5 6 0 0
BITMAP
88
50
20
20
50
88
ENDCHAR
STARTCHAR U+0079
ENCODING 121
SWIDTH 545 0
DWIDTH 6 0
BBX 5 8 0 -2
BITMAP
88
88
50
50
20
20
20
C0
ENDCHAR
STARTCHAR U+007A
ENCODING 122
SWIDTH 545 0
DWIDTH 6 0
BBX 5 6 0 0
BITMAP
F8
10
20
40
80
F8
ENDCHAR
STARTCHAR U+007B
ENCODING 123
SWIDTH 363 0
DWIDTH 4 0
BBX 3 11 0 -2
BITMAP
20
40
40
40
40
80
40
40
40
40
20
ENDCHAR
STARTCHAR U+007C
ENCODING 124
SWIDTH 181 0
DWIDTH 2 0
BBX 1 9 0 -1
BITMAP
80
80
80
80
80
80
80
80
80
ENDCHAR
STARTCHAR U+007D
ENCODING 125
SWIDTH 363 0
DWIDTH 4 0
BBX 3 11 0 -2
BITMAP
80
40
40
40
40
20
40
40
40
40
80
ENDCHAR
STARTCHAR U+007E
ENCODING 126
SWIDTH 636 0
DWIDTH 7 0
BBX 6 2 0 2
BITMAP
64
98
ENDCHAR
STARTCHAR U+00A0
ENCODING 160
SWIDTH 90 0
DWIDTH 1 0
BBX 0 0 0 0
BITMAP
ENDCHAR
STARTCHAR U+00A1
ENCODING 161
SWIDTH 181 0
DWIDTH 2 0
BBX 1 8 0 -2
BITMAP
80
00
80
80
80
80
80
80
ENDCHAR
STARTCHAR U+00A2
ENCODING 162
SWIDTH 545 0
DWIDTH 6 0
BBX 5 8 0 -1
BITMAP
20
70
88
80
80
88
70
20
ENDCHAR
STARTCHAR U+00A3
ENCODING 163
SWIDTH 636 0
DWIDTH 7 0
BBX 6 8 0 0
BITMAP
38
44
40
40
F0
40
40
FC
ENDCHAR
STARTCHAR U+00A4
ENCODING 164
SWIDTH 636 0
DWIDTH 7 0
BBX 6 7 0 0
BITMAP
B4
48
84
84
84
48
B4
ENDCHAR
STARTCHAR U+00A5
ENCODING 165
SWIDTH 727 0
DWIDTH 8 0
BBX 7 8 0 0
BITMAP
82
44
44
28
7C
10
7C
10
ENDCHAR
STARTCHAR U+00A6
ENCODING 166
SWIDTH 181 0
DWIDTH 2 0
BBX 1 9 0 -1
BITMAP
80
80
80
80
00
80
80
80
80
ENDCHAR
STARTCHAR U+00A7
ENCODING 167
SWIDTH 545 0
DWIDTH 6 0
BBX 5 11 0 -3
BITMAP
70
88
80
60
90
88
48
30
08
88
70
ENDCHAR
STARTCHAR U+00A8
ENCODING 168
SWIDTH 363 0
DWIDTH 4 0
BBX 3 1 0 7
BITMAP
A0
ENDCHAR
STARTCHAR U+00A9
ENCODING 169
SWIDTH 727 0
DWIDTH 8 0
BBX 7 8 0 0
BITMAP
38
44
9A
A2
A2
9A
44
38
ENDCHAR
STARTCHAR U+00AA
ENCODING 170
SWIDTH 363 0
DWIDTH 4 0
BBX 3 4 0 4
BITMAP
60
A0
A0
60
ENDCHAR
STARTCHAR U+00AB
ENCODING 171
SWIDTH 545 0
DWIDTH 6 0
BBX 5 4 0 1
BITMAP
48
90
90
48
ENDCHAR
STARTCHAR U+00AC
ENCODING 172
SWIDTH 454 0
DWIDTH 5 0
BBX 4 2 0 2
BITMAP
F0
10
ENDCHAR
STARTCHAR U+00AD
ENCODING 173
SWIDTH 363 0
DWIDTH 4 0
BBX 3 1 0 3
BITMAP
E0
ENDCHAR
STARTCHAR U+00AE
ENCODING 174
SWIDTH 727 0
DWIDTH 8 0
BBX 7 8 0 0
BITMAP
38
44
B2
AA
B2
AA
44
38
ENDCHAR
STARTCHAR U+00AF
ENCODING 175
SWIDTH 363 0
DWIDTH 4 0
BBX 3 1 0 7
BITMAP
E0
ENDCHAR
STARTCHAR U+00B0
ENCODING 176
SWIDTH 363 0
DWIDTH 4 0
BBX 3 3 0 5
BITMAP
40
A0
40
ENDCHAR
STARTCHAR U+00B1
ENCODING 177
SWIDTH 545 0
DWIDTH 6 0
BBX 5 7 0 0
BITMAP
20
20
F8
20
20
00
F8
ENDCHAR
STARTCHAR U+00B2
ENCODING 178
SWIDTH 363 0
DWIDTH 4 0
BBX 3 4 0 4
BITMAP
C0
20
40
E0
ENDCHAR
STARTCHAR U+00B3
ENCODING 179
SWIDTH 363 0
DWIDTH 4 0
BBX 3 4 0 4
BITMAP
E0
60
20
C0
ENDCHAR
STARTCHAR U+00B4
ENCODING 180
SWIDTH 272 0
DWIDTH 3 0
BBX 2 2 0 7
BITMAP
40
80
ENDCHAR
STARTCHAR U+00B5
ENCODING 181
SWIDTH 545 0
DWIDTH 6 0
BBX 5 8 0 -2
BITMAP
88
88
88
88
98
E8
80
80
ENDCHAR
STARTCHAR U+00B6
ENCODING 182
SWIDTH 454 0
DWIDTH 5 0
BBX 4 8 0 0
BITMAP
70
F0
F0
F0
70
10
10
10
ENDCHAR
STARTCHAR U+00B7
ENCODING 183
SWIDTH 181 0
DWIDTH 2 0
BBX 1 1 0 4
BITMAP
80
ENDCHAR
STARTCHAR U+00B8
ENCODING 184
SWIDTH 272 0
DWIDTH 3 0
BBX 2 3 0 -3
BITMAP
80
40
80
ENDCHAR
STARTCHAR U+00B9
ENCODING 185
SWIDTH 272 0
DWIDTH 3 0
BBX 2 4 0 4
BITMAP
40
C0
40
40
ENDCHAR
STARTCHAR U+00BA
ENCODING 186
SWIDTH 363 0
DWIDTH 4 0
BBX 3 4 0 4
BITMAP
40
A0
A0
40
ENDCHAR
STARTCHAR U+00BB
ENCODING 187
SWIDTH 545 0
DWIDTH 6 0
BBX 5 4 0 1
BITMAP
90
48
48
90
ENDCHAR
STARTCHAR U+00BC
ENCODING 188
SWIDTH 727 0
DWIDTH 8 0
BBX 7 8 0 0
BITMAP
40
C4
48
50
12
26
4E
02
ENDCHAR
STARTCHAR U+00BD
ENCODING 189
SWIDTH 818 0
DWIDTH 9 0
BBX 8 8 0 0
BITMAP
40
C4
48
50
16
21
42
07
ENDCHAR
STARTCHAR U+00BE
ENCODING 190
SWIDTH 727 0
DWIDTH 8 0
BBX 7 8 0 0
BITMAP
E0
44
28
D0
12
26
4E
02
ENDCHAR
STARTCHAR U+00BF
ENCODING 191
SWIDTH 545 0
DWIDTH 6 0
BBX 5 8 0 -2
BITMAP
20
00
20
20
40
80
88
70
ENDCHAR
STARTCHAR U+00C0
ENCODING 192
SWIDTH 727 0
DWIDTH 8 0
BBX 7 11 0 0
BITMAP
20
10
00
10
10
28
28
44
7C
82
82
ENDCHAR
STARTCHAR U+00C1
ENCODING 193
SWIDTH 727 0
DWIDTH 8 0
BBX 7 11 0 0
BITMAP
08
10
00
10
10
28
28
44
7C
82
82
ENDCHAR
STARTCHAR U+00C2
ENCODING 194
SWIDTH 727 0
DWIDTH 8 0
BBX 7 11 0 0
BITMAP
10
28
00
10
10
28
28
44
7C
82
82
ENDCHAR
STARTCHAR U+00C3
ENCODING 195
SWIDTH 727 0
DWIDTH 8 0
BBX 7 11 0 0
BITMAP
14
28
00
10
10
28
28
44
7C
82
82
ENDCHAR
STARTCHAR U+00C4
ENCODING 196
SWIDTH 727 0
DWIDTH 8 0
BBX 7 10 0 0
BITMAP
28
00
10
10
28
28
44
7C
82
82
ENDCHAR
STARTCHAR U+00C5
ENCODING 197
SWIDTH 727 0
DWIDTH 8 0
BBX 7 10 0 0
BITMAP
10
28
10
10
28
28
44
7C
82
82
ENDCHAR
STARTCHAR U+00C6
ENCODING 198
SWIDTH 1000 0
DWIDTH 11 0
BBX 10 8 0 0
BITMAP
0FC0
0C00
1400
1780
2400
7C00
4400
87C0
ENDCHAR
STARTCHAR U+00C7
ENCODING 199
SWIDTH 636 0
DWIDTH 7 0
BBX 6 11 0 -3
BITMAP
78
84
84
80
80
84
84
78
30
10
20
ENDCHAR
STARTCHAR U+00C8
ENCODING 200
SWIDTH 545 0
DWIDTH 6 0
BBX 5 11 0 0
BITMAP
40
20
00
F8
80
80
F0
80
80
80
F8
ENDCHAR
STARTCHAR U+00C9
ENCODING 201
SWIDTH 545 0
DWIDTH 6 0
BBX 5 11 0 0
BITMAP
10
20
00
F8
80
80
F0
80
80
80
F8
ENDCHAR
STARTCHAR U+00CA
ENCODING 202
SWIDTH 545 0
DWIDTH 6 0
BBX 5 11 0 0
BITMAP
20
50
00
F8
80
80
F0
80
80
80
F8
ENDCHAR
STARTCHAR U+00CB
ENCODING 203
SWIDTH 545 0
DWIDTH 6 0
BBX 5 10 0 0
BITMAP
50
00
F8
80
80
F0
80
80
80
F8
ENDCHAR
STARTCHAR U+00CC
ENCODING 204
SWIDTH 181 0
DWIDTH 2 0
BBX 2 11 -1 0
BITMAP
80
40
00
40
40
40
40
40
40
40
40
ENDCHAR
STARTCHAR U+00CD
ENCODING 205
SWIDTH 181 0
DWIDTH 2 0
BBX 2 11 0 0
BITMAP
40
80
00
80
80
80
80
80
80
80
80
ENDCHAR
STARTCHAR U+00CE
ENCODING 206
SWIDTH 181 0
DWIDTH 2 0
BBX 3 11 -1 0
BITMAP
40
A0
00
40
40
40
40
40
40
40
40
ENDCHAR
STARTCHAR U+00CF
ENCODING 207
SWIDTH 181 0
DWIDTH 2 0
BBX 3 10 -1 0
BITMAP
A0
00
40
40
40
40
40
40
40
40
ENDCHAR
STARTCHAR U+00D0
ENCODING 208
SWIDTH 727 0
DWIDTH 8 0
BBX 7 8 0 0
BITMAP
78
44
42
E2
42
42
44
78
ENDCHAR
STARTCHAR U+00D1
ENCODING 209
SWIDTH 636 0
DWIDTH 7 0
BBX 6 11 0 0
BITMAP
28
50
00
84
C4
C4
A4
94
8C
8C
84
ENDCHAR
STARTCHAR U+00D2
ENCODING 210
SWIDTH 636 0
DWIDTH 7 0
BBX 6 11 0 0
BITMAP
20
10
00
78
84
84
84
84
84
84
78
ENDCHAR
STARTCHAR U+00D3
ENCODING 211
SWIDTH 636 0
DWIDTH 7 0
BBX 6 11 0 0
BITMAP
10
20
00
78
84
84
84
84
84
84
78
ENDCHAR
STARTCHAR U+00D4
ENCODING 212
SWIDTH 636 0
DWIDTH 7 0
BBX 6 11 0 0
BITMAP
30
48
00
78
84
84
84
84
84
84
78
ENDCHAR
STARTCHAR U+00D5
ENCODING 213
SWIDTH 636 0
DWIDTH 7 0
BBX 6 11 0 0
BITMAP
28
50
00
78
84
84
84
84
84
84
78
ENDCHAR
STARTCHAR U+00D6
ENCODING 214
SWIDTH 636 0
DWIDTH 7 0
BBX 6 10 0 0
BITMAP
48
00
78
84
84
84
84
84
84
78
ENDCHAR
STARTCHAR U+00D7
ENCODING 215
SWIDTH 545 0
DWIDTH 6 0
BBX 5 5 0 1
BITMAP
88
50
20
50
88
ENDCHAR
STARTCHAR U+00D8
ENCODING 216
SWIDTH 636 0
DWIDTH 7 0
BBX 6 10 0 -1
BITMAP
04
78
8C
94
94
A4
A4
C4
78
80
ENDCHAR
STARTCHAR U+00D9
ENCODING 217
SWIDTH 636 0
DWIDTH 7 0
BBX 6 11 0 0
BITMAP
20
10
00
84
84
84
84
84
84
84
78
ENDCHAR
STARTCHAR U+00DA
ENCODING 218
SWIDTH 636 0
DWIDTH 7 0
BBX 6 11 0 0
BITMAP
10
20
00
84
84
84
84
84
84
84
78
ENDCHAR
STARTCHAR U+00DB
ENCODING 219
SWIDTH 636 0
DWIDTH 7 0
BBX 6 11 0 0
BITMAP
30
48
00
84
84
84
84
84
84
84
78
ENDCHAR
STARTCHAR U+00DC
ENCODING 220
SWIDTH 636 0
DWIDTH 7 0
BBX 6 10 0 0
BITMAP
48
00
84
84
84
84
84
84
84
78
ENDCHAR
STARTCHAR U+00DD
ENCODING 221
SWIDTH 727 0
DWIDTH 8 0
BBX 7 11 0 0
BITMAP
08
10
00
82
44
44
28
10
10
10
10
ENDCHAR
STARTCHAR U+00DE
ENCODING 222
SWIDTH 545 0
DWIDTH 6 0
BBX 5 8 0 0
BITMAP
80
80
F0
88
88
F0
80
80
ENDCHAR
STARTCHAR U+00DF
ENCODING 223
SWIDTH 545 0
DWIDTH 6 0
BBX 5 8 0 0
BITMAP
60
90
90
A0
90
88
88
B0
ENDCHAR
STARTCHAR U+00E0
ENCODING 224
SWIDTH 545 0
DWIDTH 6 0
BBX 5 9 0 0
BITMAP
40
20
00
70
88
78
88
88
78
ENDCHAR
STARTCHAR U+00E1
ENCODING 225
SWIDTH 545 0
DWIDTH 6 0
BBX 5 9 0 0
BITMAP
10
20
00
70
88
78
88
88
78
ENDCHAR
STARTCHAR U+00E2
ENCODING 226
SWIDTH 545 0
DWIDTH 6 0
BBX 5 9 0 0
BITMAP
20
50
00
70
88
78
88
88
78
ENDCHAR
STARTCHAR U+00E3
ENCODING 227
SWIDTH 545 0
DWIDTH 6 0
BBX 5 9 0 0
BITMAP
28
50
00
70
88
78
88
88
78
ENDCHAR
STARTCHAR U+00E4
ENCODING 228
SWIDTH 545 0
DWIDTH 6 0
BBX 5 8 0 0
BITMAP
50
00
70
88
78
88
88
78
ENDCHAR
STARTCHAR U+00E5
ENCODING 229
SWIDTH 545 0
DWIDTH 6 0
BBX 5 10 0 0
BITMAP
20
50
20
00
70
88
78
88
88
78
ENDCHAR
STARTCHAR U+00E6
ENCODING 230
SWIDTH 909 0
DWIDTH 10 0
BBX 9 6 0 0
BITMAP
7700
8880
7F80
8800
8800
7780
ENDCHAR
STARTCHAR U+00E7
ENCODING 231
SWIDTH 545 0
DWIDTH 6 0
BBX 5 9 0 -3
BITMAP
70
88
80
80
88
70
30
10
20
ENDCHAR
STARTCHAR U+00E8
ENCODING 232
SWIDTH 545 0
DWIDTH 6 0
BBX 5 9 0 0
BITMAP
40
20
00
70
88
F8
80
88
70
ENDCHAR
STARTCHAR U+00E9
ENCODING 233
SWIDTH 545 0
DWIDTH 6 0
BBX 5 9 0 0
BITMAP
10
20
00
70
88
F8
80
88
70
ENDCHAR
STARTCHAR U+00EA
ENCODING 234
SWIDTH 545 0
DWIDTH 6 0
BBX 5 9 0 0
BITMAP
20
50
00
70
88
F8
80
88
70
ENDCHAR
STARTCHAR U+00EB
ENCODING 235
SWIDTH 545 0
DWIDTH 6 0
BBX 5 8 0 0
BITMAP
50
00
70
88
F8
80
88
70
ENDCHAR
STARTCHAR U+00EC
ENCODING 236
SWIDTH 181 0
DWIDTH 2 0
BBX 2 9 -1 0
BITMAP
80
40
00
40
40
40
40
40
40
ENDCHAR
STARTCHAR U+00ED
ENCODING 237
SWIDTH 181 0
DWIDTH 2 0
BBX 2 9 0 0
BITMAP
40
80
00
80
80
80
80
80
80
ENDCHAR
STARTCHAR U+00EE
ENCODING 238
SWIDTH 181 0
DWIDTH 2 0
BBX 3 9 -1 0
BITMAP
40
A0
00
40
40
40
40
40
40
ENDCHAR
STARTCHAR U+00EF
ENCODING 239
SWIDTH 181 0
DWIDTH 2 0
BBX 3 8 -1 0
BITMAP
A0
00
40
40
40
40
40
40
ENDCHAR
STARTCHAR U+00F0
ENCODING 240
SWIDTH 545 0
DWIDTH 6 0
BBX 5 9 0 0
BITMAP
28
30
08
78
88
88
88
88
70
ENDCHAR
STARTCHAR U+00F1
ENCODING 241
SWIDTH 545 0
DWIDTH 6 0
BBX 5 9 0 0
BITMAP
28
50
00
B0
C8
88
88
88
88
ENDCHAR
STARTCHAR U+00F2
ENCODING 242
SWIDTH 545 0
DWIDTH 6 0
BBX 5 9 0 0
BITMAP
40
20
00
70
88
88
88
88
70
ENDCHAR
STARTCHAR U+00F3
ENCODING 243
SWIDTH 545 0
DWIDTH 6 0
BBX 5 9 0 0
BITMAP
10
20
00
70
88
88
88
88
70
ENDCHAR
STARTCHAR U+00F4
ENCODING 244
SWIDTH 545 0
DWIDTH 6 0
BBX 5 9 0 0
BITMAP
20
50
00
70
88
88
88
88
70
ENDCHAR
STARTCHAR U+00F5
ENCODING 245
SWIDTH 545 0
DWIDTH 6 0
BBX 5 9 0 0
BITMAP
28
50
00
70
88
88
88
88
70
ENDCHAR
STARTCHAR U+00F6
ENCODING 246
SWIDTH 545 0
DWIDTH 6 0
BBX 5 8 0 0
BITMAP
50
00
70
88
88
88
88
70
ENDCHAR
STARTCHAR U+00F7
ENCODING 247
SWIDTH 545 0
DWIDTH 6 0
BBX 5 5 0 1
BITMAP
20
00
F8
00
20
ENDCHAR
STARTCHAR U+00F8
ENCODING 248
SWIDTH 545 0
DWIDTH 6 0
BBX 5 8 0 -1
BITMAP
08
70
98
A8
A8
C8
70
80
ENDCHAR
STARTCHAR U+00F9
ENCODING 249
SWIDTH 545 0
DWIDTH 6 0
BBX 5 9 0 0
BITMAP
40
20
00
88
88
88
88
98
68
ENDCHAR
STARTCHAR U+00FA
ENCODING 250
SWIDTH 545 0
DWIDTH 6 0
BBX 5 9 0 0
BITMAP
10
20
00
88
88
88
88
98
68
ENDCHAR
STARTCHAR U+00FB
ENCODING 251
SWIDTH 545 0
DWIDTH 6 0
BBX 5 9 0 0
BITMAP
20
50
00
88
88
88
88
98
68
ENDCHAR
STARTCHAR U+00FC
ENCODING 252
SWIDTH 545 0
DWIDTH 6 0
BBX 5 8 0 0
BITMAP
50
00
88
88
88
88
98
68
ENDCHAR
STARTCHAR U+00FD
ENCODING 253
SWIDTH 545 0
DWIDTH 6 0
BBX 5 11 0 -2
BITMAP
10
20
00
88
88
50
50
20
20
20
C0
ENDCHAR
STARTCHAR U+00FE
ENCODING 254
SWIDTH 545 0
DWIDTH 6 0
BBX 5 10 0 -2
BITMAP
80
80
F0
88
88
88
88
F0
80
80
ENDCHAR
STARTCHAR U+00FF
ENCODING 255
SWIDTH 545 0
DWIDTH 6 0
BBX 5 10 0 -2
BITMAP
50
00
88
88
50
50
20
20
20
C0
ENDCHAR
STARTCHAR U+0102
ENCODING 258
SWIDTH 727 0
DWIDTH 8 0
BBX 7 11 0 0
BITMAP
28
10
00
10
10
28
28
44
7C
82
82
ENDCHAR
STARTCHAR U+0103
ENCODING 259
SWIDTH 545 0
DWIDTH 6 0
BBX 5 9 0 0
BITMAP
50
20
00
70
88
78
88
88
78
ENDCHAR
STARTCHAR U+0104
ENCODING 260
SWIDTH 727 0
DWIDTH 8 0
BBX 7 10 0 -2
BITMAP
10
10
28
28
44
7C
82
82
04
02
ENDCHAR
STARTCHAR U+0105
ENCODING 261
SWIDTH 545 0
DWIDTH 6 0
BBX 5 8 0 -2
BITMAP
70
88
78
88
88
78
10
08
ENDCHAR
STARTCHAR U+0106
ENCODING 262
SWIDTH 636 0
DWIDTH 7 0
BBX 6 11 0 0
BITMAP
10
20
00
78
84
84
80
80
84
84
78
ENDCHAR
STARTCHAR U+0107
ENCODING 263
SWIDTH 545 0
DWIDTH 6 0
BBX 5 9 0 0
BITMAP
10
20
00
70
88
80
80
88
70
ENDCHAR
STARTCHAR U+010C
ENCODING 268
SWIDTH 636 0
DWIDTH 7 0
BBX 6 11 0 0
BITMAP
48
30
00
78
84
84
80
80
84
84
78
ENDCHAR
STARTCHAR U+010D
ENCODING 269
SWIDTH 545 0
DWIDTH 6 0
BBX 5 9 0 0
BITMAP
50
20
00
70
88
80
80
88
70
ENDCHAR
STARTCHAR U+0110
ENCODING 272
SWIDTH 727 0
DWIDTH 8 0
BBX 7 8 0 0
BITMAP
78
44
42
E2
42
42
44
78
ENDCHAR
STARTCHAR U+0111
ENCODING 273
SWIDTH 545 0
DWIDTH 6 0
BBX 6 9 0 0
BITMAP
08
1C
08
78
88
88
88
88
78
ENDCHAR
STARTCHAR U+0118
ENCODING 280
SWIDTH 545 0
DWIDTH 6 0
BBX 5 10 0 -2
BITMAP
F8
80
80
F0
80
80
80
F8
10
08
ENDCHAR
STARTCHAR U+0119
ENCODING 281
SWIDTH 545 0
DWIDTH 6 0
BBX 5 8 0 -2
BITMAP
70
88
F8
80
88
70
10
08
ENDCHAR
STARTCHAR U+011A
ENCODING 282
SWIDTH 545 0
DWIDTH 6 0
BBX 5 11 0 0
BITMAP
50
20
00
F8
80
80
F0
80
80
80
F8
ENDCHAR
STARTCHAR U+011B
ENCODING 283
SWIDTH 545 0
DWIDTH 6 0
BBX 5 9 0 0
BITMAP
50
20
00
70
88
F8
80
88
70
ENDCHAR
STARTCHAR U+011E
ENCODING 286
SWIDTH 636 0
DWIDTH 7 0
BBX 6 11 0 0
BITMAP
48
30
00
78
84
84
80
9C
84
84
78
ENDCHAR
STARTCHAR U+011F
ENCODING 287
SWIDTH 545 0
DWIDTH 6 0
BBX 5 11 0 -2
BITMAP
50
20
00
78
88
88
88
88
78
08
70
ENDCHAR
STARTCHAR U+0130
ENCODING 304
SWIDTH 181 0
DWIDTH 2 0
BBX 1 10 0 0
BITMAP
80
00
80
80
80
80
80
80
80
80
ENDCHAR
STARTCHAR U+0131
ENCODING 305
SWIDTH 181 0
DWIDTH 2 0
BBX 1 6 0 0
BITMAP
80
80
80
80
80
80
ENDCHAR
STARTCHAR U+013D
ENCODING 317
SWIDTH 545 0
DWIDTH 6 0
BBX 5 8 0 0
BITMAP
88
88
80
80
80
80
80
F8
ENDCHAR
STARTCHAR U+013E
ENCODING 318
SWIDTH 363 0
DWIDTH 4 0
BBX 3 8 0 0
BITMAP
A0
A0
80
80
80
80
80
80
ENDCHAR
STARTCHAR U+0141
ENCODING 321
SWIDTH 636 0
DWIDTH 7 0
BBX 6 8 0 0
BITMAP
40
40
40
60
C0
40
40
7C
ENDCHAR
STARTCHAR U+0142
ENCODING 322
SWIDTH 363 0
DWIDTH 4 0
BBX 3 8 0 0
BITMAP
40
40
40
60
C0
40
40
40
ENDCHAR
STARTCHAR U+0143
ENCODING 323
SWIDTH 636 0
DWIDTH 7 0
BBX 6 11 0 0
BITMAP
10
20
00
84
C4
C4
A4
94
8C
8C
84
ENDCHAR
STARTCHAR U+0144
ENCODING 324
SWIDTH 545 0
DWIDTH 6 0
BBX 5 9 0 0
BITMAP
10
20
00
B0
C8
88
88
88
88
ENDCHAR
STARTCHAR U+0147
ENCODING 327
SWIDTH 636 0
DWIDTH 7 0
BBX 6 11 0 0
BITMAP
48
30
00
84
C4
C4
A4
94
8C
8C
84
ENDCHAR
STARTCHAR U+0148
ENCODING 328
SWIDTH 545 0
DWIDTH 6 0
BBX 5 9 0 0
BITMAP
50
20
00
B0
C8
88
88
88
88
ENDCHAR
STARTCHAR U+0150
ENCODING 336
SWIDTH 636 0
DWIDTH 7 0
BBX 6 11 0 0
BITMAP
24
48
00
78
84
84
84
84
84
84
78
ENDCHAR
STARTCHAR U+0151
ENCODING 337
SWIDTH 545 0
DWIDTH 6 0
BBX 5 9 0 0
BITMAP
28
50
00
70
88
88
88
88
70
ENDCHAR
STARTCHAR U+0154
ENCODING 340
SWIDTH 545 0
DWIDTH 6 0
BBX 5 11 0 0
BITMAP
10
20
00
F0
88
88
88
F0
90
88
88
ENDCHAR
STARTCHAR U+0155
ENCODING 341
SWIDTH 363 0
DWIDTH 4 0
BBX 3 9 0 0
BITMAP
20
40
00
A0
C0
80
80
80
80
ENDCHAR
STARTCHAR U+0158
ENCODING 344
SWIDTH 545 0
DWIDTH 6 0
BBX 5 11 0 0
BITMAP
50
20
00
F0
88
88
88
F0
90
88
88
ENDCHAR
STARTCHAR U+0159
ENCODING 345
SWIDTH 363 0
DWIDTH 4 0
BBX 3 9 0 0
BITMAP
A0
40
00
A0
C0
80
80
80
80
ENDCHAR
STARTCHAR U+015A
ENCODING 346
SWIDTH 545 0
DWIDTH 6 0
BBX 5 11 0 0
BITMAP
10
20
00
70
88
80
70
08
08
88
70
ENDCHAR
STARTCHAR U+015B
ENCODING 347
SWIDTH 545 0
DWIDTH 6 0
BBX 5 9 0 0
BITMAP
10
20
00
70
88
70
08
88
70
ENDCHAR
STARTCHAR U+015E
ENCODING 350
SWIDTH 545 0
DWIDTH 6 0
BBX 5 11 0 -3
BITMAP
70
88
80
70
08
08
88
70
60
20
40
ENDCHAR
STARTCHAR U+015F
ENCODING 351
SWIDTH 545 0
DWIDTH 6 0
BBX 5 9 0 -3
BITMAP
70
88
70
08
88
70
60
20
40
ENDCHAR
STARTCHAR U+0160
ENCODING 352
SWIDTH 545 0
DWIDTH 6 0
BBX 5 11 0 0
BITMAP
50
20
00
70
88
80
70
08
08
88
70
ENDCHAR
STARTCHAR U+0161
ENCODING 353
SWIDTH 545 0
DWIDTH 6 0
BBX 5 9 0 0
BITMAP
50
20
00
70
88
70
08
88
70
ENDCHAR
STARTCHAR U+0164
ENCODING 356
SWIDTH 727 0
DWIDTH 8 0
BBX 7 11 0 0
BITMAP
28
10
00
FE
10
10
10
10
10
10
10
ENDCHAR
STARTCHAR U+0165
ENCODING 357
SWIDTH 545 0
DWIDTH 6 0
BBX 5 8 0 0
BITMAP
08
48
E0
40
40
40
40
20
ENDCHAR
STARTCHAR U+0168
ENCODING 360
SWIDTH 636 0
DWIDTH 7 0
BBX 6 11 0 0
BITMAP
28
50
00
84
84
84
84
84
84
84
78
ENDCHAR
STARTCHAR U+0169
ENCODING 361
SWIDTH 545 0
DWIDTH 6 0
BBX 5 9 0 0
BITMAP
28
50
00
88
88
88
88
98
68
ENDCHAR
STARTCHAR U+016E
ENCODING 366
SWIDTH 636 0
DWIDTH 7 0
BBX 6 11 0 0
BITMAP
30
48
30
84
84
84
84
84
84
84
78
ENDCHAR
STARTCHAR U+016F
ENCODING 367
SWIDTH 545 0
DWIDTH 6 0
BBX 5 10 0 0
BITMAP
20
50
20
00
88
88
88
88
98
68
ENDCHAR
STARTCHAR U+0179
ENCODING 377
SWIDTH 636 0
DWIDTH 7 0
BBX 6 11 0 0
BITMAP
10
20
00
FC
04
08
10
20
40
80
FC
ENDCHAR
STARTCHAR U+017A
ENCODING 378
SWIDTH 545 0
DWIDTH 6 0
BBX 5 9 0 0
BITMAP
10
20
00
F8
10
20
40
80
F8
ENDCHAR
STARTCHAR U+017B
ENCODING 379
SWIDTH 636 0
DWIDTH 7 0
BBX 6 10 0 0
BITMAP
10
00
FC
04
08
10
20
40
80
FC
ENDCHAR
STARTCHAR U+017C
ENCODING 380
SWIDTH 545 0
DWIDTH 6 0
BBX 5 8 0 0
BITMAP
20
00
F8
10
20
40
80
F8
ENDCHAR
STARTCHAR U+017D
ENCODING 381
SWIDTH 636 0
DWIDTH 7 0
BBX 6 11 0 0
BITMAP
48
30
00
FC
04
08
10
20
40
80
FC
ENDCHAR
STARTCHAR U+017E
ENCODING 382
SWIDTH 545 0
DWIDTH 6 0
BBX 5 9 0 0
BITMAP
50
20
00
F8
10
20
40
80
F8
ENDCHAR
STARTCHAR U+01A0
ENCODING 416
SWIDTH 727 0
DWIDTH 8 0
BBX 7 8 0 0
BITMAP
7A
86
84
84
84
84
84
78
ENDCHAR
STARTCHAR U+01A1
ENCODING 417
SWIDTH 636 0
DWIDTH 7 0
BBX 6 6 0 0
BITMAP
74
8C
88
88
88
70
ENDCHAR
STARTCHAR U+01AF
ENCODING 431
SWIDTH 727 0
DWIDTH 8 0
BBX 7 9 0 0
BITMAP
02
86
84
84
84
84
84
84
78
ENDCHAR
STARTCHAR U+01B0
ENCODING 432
SWIDTH 636 0
DWIDTH 7 0
BBX 6 7 0 0
BITMAP
04
8C
88
88
88
98
68
ENDCHAR
STARTCHAR U+0218
ENCODING 536
SWIDTH 545 0
DWIDTH 6 0
BBX 5 11 0 -3
BITMAP
70
88
80
70
08
08
88
70
00
20
40
ENDCHAR
STARTCHAR U+0219
ENCODING 537
SWIDTH 545 0
DWIDTH 6 0
BBX 5 9 0 -3
BITMAP
70
88
70
08
88
70
00
20
40
ENDCHAR
STARTCHAR U+021A
ENCODING 538
SWIDTH 727 0
DWIDTH 8 0
BBX 7 11 0 -3
BITMAP
FE
10
10
10
10
10
10
10
00
10
20
ENDCHAR
STARTCHAR U+021B
ENCODING 539
SWIDTH 363 0
DWIDTH 4 0
BBX 3 10 0 -3
BITMAP
40
E0
40
40
40
40
20
00
40
80
ENDCHAR
STARTCHAR U+0386
ENCODING 902
SWIDTH 727 0
DWIDTH 8 0
BBX 7 8 0 0
BITMAP
50
90
28
28
44
7C
82
82
ENDCHAR
STARTCHAR U+0388
ENCODING 904
SWIDTH 818 0
DWIDTH 9 0
BBX 8 8 0 0
BITMAP
5F
90
10
1E
10
10
10
1F
ENDCHAR
STARTCHAR U+0389
ENCODING 905
SWIDTH 909 0
DWIDTH 10 0
BBX 9 8 0 0
BITMAP
5080
9080
1080
1F80
1080
1080
1080
1080
ENDCHAR
STARTCHAR U+038A
ENCODING 906
SWIDTH 454 0
DWIDTH 5 0
BBX 4 8 0 0
BITMAP
50
90
10
10
10
10
10
10
ENDCHAR
STARTCHAR U+038C
ENCODING 908
SWIDTH 909 0
DWIDTH 10 0
BBX 9 8 0 0
BITMAP
4F00
9080
1080
1080
1080
1080
1080
0F00
ENDCHAR
STARTCHAR U+038E
ENCODING 910
SWIDTH 1000 0
DWIDTH 11 0
BBX 10 8 0 0
BITMAP
5040
8880
0880
0500
0200
0200
0200
0200
ENDCHAR
STARTCHAR U+038F
ENCODING 911
SWIDTH 909 0
DWIDTH 10 0
BBX 9 8 0 0
BITMAP
4F00
9080
1080
1080
1080
1080
0900
1980
ENDCHAR
STARTCHAR U+0391
ENCODING 913
SWIDTH 727 0
DWIDTH 8 0
BBX 7 8 0 0
BITMAP
10
10
28
28
44
7C
82
82
ENDCHAR
STARTCHAR U+0392
ENCODING 914
SWIDTH 545 0
DWIDTH 6 0
BBX 5 8 0 0
BITMAP
F0
88
88
F0
88
88
88
F0
ENDCHAR
STARTCHAR U+0393
ENCODING 915
SWIDTH 545 0
DWIDTH 6 0
BBX 5 8 0 0
BITMAP
F8
80
80
80
80
80
80
80
ENDCHAR
STARTCHAR U+0394
ENCODING 916
SWIDTH 727 0
DWIDTH 8 0
BBX 7 8 0 0
BITMAP
10
10
28
28
44
44
82
FE
ENDCHAR
STARTCHAR U+0395
ENCODING 917
SWIDTH 545 0
DWIDTH 6 0
BBX 5 8 0 0
BITMAP
F8
80
80
F0
80
80
80
F8
ENDCHAR
STARTCHAR U+0396
ENCODING 918
SWIDTH 636 0
DWIDTH 7 0
BBX 6 8 0 0
BITMAP
FC
04
08
10
20
40
80
FC
ENDCHAR
STARTCHAR U+0397
ENCODING 919
SWIDTH 636 0
DWIDTH 7 0
BBX 6 8 0 0
BITMAP
84
84
84
FC
84
84
84
84
ENDCHAR
STARTCHAR U+0398
ENCODING 920
SWIDTH 636 0
DWIDTH 7 0
BBX 6 8 0 0
BITMAP
78
84
84
B4
84
84
84
78
ENDCHAR
STARTCHAR U+0399
ENCODING 921
SWIDTH 181 0
DWIDTH 2 0
BBX 1 8 0 0
BITMAP
80
80
80
80
80
80
80
80
ENDCHAR
STARTCHAR U+039A
ENCODING 922
SWIDTH 636 0
DWIDTH 7 0
BBX 6 8 0 0
BITMAP
84
88
90
A0
D0
88
88
84
ENDCHAR
STARTCHAR U+039B
ENCODING 923
SWIDTH 727 0
DWIDTH 8 0
BBX 7 8 0 0
BITMAP
10
10
28
28
44
44
82
82
ENDCHAR
STARTCHAR U+039C
ENCODING 924
SWIDTH 727 0
DWIDTH 8 0
BBX 7 8 0 0
BITMAP
82
82
C6
C6
AA
AA
92
92
ENDCHAR
STARTCHAR U+039D
ENCODING 925
SWIDTH 636 0
DWIDTH 7 0
BBX 6 8 0 0
BITMAP
84
C4
C4
A4
94
8C
8C
84
ENDCHAR
STARTCHAR U+039E
ENCODING 926
SWIDTH 636 0
DWIDTH 7 0
BBX 6 8 0 0
BITMAP
FC
00
00
78
00
00
00
FC
ENDCHAR
STARTCHAR U+039F
ENCODING 927
SWIDTH 636 0
DWIDTH 7 0
BBX 6 8 0 0
BITMAP
78
84
84
84
84
84
84
78
ENDCHAR
STARTCHAR U+03A0
ENCODING 928
SWIDTH 636 0
DWIDTH 7 0
BBX 6 8 0 0
BITMAP
FC
84
84
84
84
84
84
84
ENDCHAR
STARTCHAR U+03A1
ENCODING 929
SWIDTH 636 0
DWIDTH 7 0
BBX 6 8 0 0
BITMAP
F8
84
84
84
F8
80
80
80
ENDCHAR
STARTCHAR U+03A3
ENCODING 931
SWIDTH 545 0
DWIDTH 6 0
BBX 5 8 0 0
BITMAP
F8
40
20
10
20
40
80
F8
ENDCHAR
STARTCHAR U+03A4
ENCODING 932
SWIDTH 727 0
DWIDTH 8 0
BBX 7 8 0 0
BITMAP
FE
10
10
10
10
10
10
10
ENDCHAR
STARTCHAR U+03A5
ENCODING 933
SWIDTH 727 0
DWIDTH 8 0
BBX 7 8 0 0
BITMAP
82
44
44
28
10
10
10
10
ENDCHAR
STARTCHAR U+03A6
ENCODING 934
SWIDTH 727 0
DWIDTH 8 0
BBX 7 8 0 0
BITMAP
10
7C
92
92
92
92
7C
10
ENDCHAR
STARTCHAR U+03A7
ENCODING 935
SWIDTH 636 0
DWIDTH 7 0
BBX 6 8 0 0
BITMAP
84
48
48
30
30
48
48
84
ENDCHAR
STARTCHAR U+03A8
ENCODING 936
SWIDTH 727 0
DWIDTH 8 0
BBX 7 8 0 0
BITMAP
92
92
92
92
7C
10
10
10
ENDCHAR
STARTCHAR U+03A9
ENCODING 937
SWIDTH 636 0
DWIDTH 7 0
BBX 6 8 0 0
BITMAP
78
84
84
84
84
84
48
CC
ENDCHAR
STARTCHAR U+03AA
ENCODING 938
SWIDTH 181 0
DWIDTH 2 0
BBX 3 10 -1 0
BITMAP
A0
00
40
40
40
40
40
40
40
40
ENDCHAR
STARTCHAR U+03AB
ENCODING 939
SWIDTH 727 0
DWIDTH 8 0
BBX 7 10 0 0
BITMAP
28
00
82
44
44
28
10
10
10
10
ENDCHAR
STARTCHAR U+03AC
ENCODING 940
SWIDTH 545 0
DWIDTH 6 0
BBX 5 9 0 0
BITMAP
10
20
00
78
88
88
88
88
78
ENDCHAR
STARTCHAR U+03AD
ENCODING 941
SWIDTH 545 0
DWIDTH 6 0
BBX 5 9 0 0
BITMAP
10
20
00
70
88
60
80
88
70
ENDCHAR
STARTCHAR U+03AE
ENCODING 942
SWIDTH 545 0
DWIDTH 6 0
BBX 5 11 0 -2
BITMAP
10
20
00
B0
C8
88
88
88
88
08
08
ENDCHAR
STARTCHAR U+03AF
ENCODING 943
SWIDTH 181 0
DWIDTH 2 0
BBX 2 9 0 0
BITMAP
40
80
00
80
80
80
80
80
80
ENDCHAR
STARTCHAR U+03B1
ENCODING 945
SWIDTH 545 0
DWIDTH 6 0
BBX 5 6 0 0
BITMAP
78
88
88
88
88
78
ENDCHAR
STARTCHAR U+03B2
ENCODING 946
SWIDTH 545 0
DWIDTH 6 0
BBX 5 10 0 -2
BITMAP
70
88
88
B0
88
88
88
B0
80
80
ENDCHAR
STARTCHAR U+03B3
ENCODING 947
SWIDTH 545 0
DWIDTH 6 0
BBX 5 8 0 -2
BITMAP
88
88
50
50
20
20
20
20
ENDCHAR
STARTCHAR U+03B4
ENCODING 948
SWIDTH 545 0
DWIDTH 6 0
BBX 5 8 0 0
BITMAP
78
20
70
88
88
88
88
70
ENDCHAR
STARTCHAR U+03B5
ENCODING 949
SWIDTH 545 0
DWIDTH 6 0
BBX 5 6 0 0
BITMAP
70
88
60
80
88
70
ENDCHAR
STARTCHAR U+03B6
ENCODING 950
SWIDTH 454 0
DWIDTH 5 0
BBX 4 10 0 -2
BITMAP
F0
10
20
40
80
80
80
70
10
20
ENDCHAR
STARTCHAR U+03B7
ENCODING 951
SWIDTH 545 0
DWIDTH 6 0
BBX 5 8 0 -2
BITMAP
B0
C8
88
88
88
88
08
08
ENDCHAR
STARTCHAR U+03B8
ENCODING 952
SWIDTH 545 0
DWIDTH 6 0
BBX 5 8 0 0
BITMAP
70
88
88
F8
88
88
88
70
ENDCHAR
STARTCHAR U+03B9
ENCODING 953
SWIDTH 181 0
DWIDTH 2 0
BBX 1 6 0 0
BITMAP
80
80
80
80
80
80
ENDCHAR
STARTCHAR U+03BA
ENCODING 954
SWIDTH 545 0
DWIDTH 6 0
BBX 5 6 0 0
BITMAP
88
90
A0
D0
90
88
ENDCHAR
STARTCHAR U+03BB
ENCODING 955
SWIDTH 545 0
DWIDTH 6 0
BBX 5 8 0 0
BITMAP
40
40
20
20
50
50
88
88
ENDCHAR
STARTCHAR U+03BC
ENCODING 956
SWIDTH 545 0
DWIDTH 6 0
BBX 5 8 0 -2
BITMAP
88
88
88
88
98
E8
80
80
ENDCHAR
STARTCHAR U+03BD
ENCODING 957
SWIDTH 545 0
DWIDTH 6 0
BBX 5 6 0 0
BITMAP
88
88
50
50
20
20
ENDCHAR
STARTCHAR U+03BE
ENCODING 958
SWIDTH 454 0
DWIDTH 5 0
BBX 4 10 0 -2
BITMAP
70
80
80
70
80
80
80
70
10
20
ENDCHAR
STARTCHAR U+03BF
ENCODING 959
SWIDTH 545 0
DWIDTH 6 0
BBX 5 6 0 0
BITMAP
70
88
88
88
88
70
ENDCHAR
STARTCHAR U+03C0
ENCODING 960
SWIDTH 636 0
DWIDTH 7 0
BBX 6 6 0 0
BITMAP
FC
48
48
48
48
48
ENDCHAR
STARTCHAR U+03C1
ENCODING 961
SWIDTH 545 0
DWIDTH 6 0
BBX 5 8 0 -2
BITMAP
70
88
88
88
88
F0
80
80
ENDCHAR
STARTCHAR U+03C2
ENCODING 962
SWIDTH 545 0
DWIDTH 6 0
BBX 5 8 0 -2
BITMAP
70
88
80
80
80
78
08
10
ENDCHAR
STARTCHAR U+03C3
ENCODING 963
SWIDTH 636 0
DWIDTH 7 0
BBX 6 6 0 0
BITMAP
7C
88
88
88
88
70
ENDCHAR
STARTCHAR U+03C4
ENCODING 964
SWIDTH 545 0
DWIDTH 6 0
BBX 5 6 0 0
BITMAP
F8
20
20
20
20
20
ENDCHAR
STARTCHAR U+03C5
ENCODING 965
SWIDTH 545 0
DWIDTH 6 0
BBX 5 6 0 0
BITMAP
88
88
88
88
88
70
ENDCHAR
STARTCHAR U+03C6
ENCODING 966
SWIDTH 727 0
DWIDTH 8 0
BBX 7 8 0 -2
BITMAP
4C
92
92
92
92
7C
10
10
ENDCHAR
STARTCHAR U+03C7
ENCODING 967
SWIDTH 636 0
DWIDTH 7 0
BBX 6 8 0 -2
BITMAP
84
48
48
30
30
48
48
84
ENDCHAR
STARTCHAR U+03C8
ENCODING 968
SWIDTH 727 0
DWIDTH 8 0
BBX 7 8 0 -2
BITMAP
92
92
92
92
7C
10
10
10
ENDCHAR
STARTCHAR U+03C9
ENCODING 969
SWIDTH 727 0
DWIDTH 8 0
BBX 7 6 0 0
BITMAP
44
92
92
92
92
6C
ENDCHAR
STARTCHAR U+03CA
ENCODING 970
SWIDTH 181 0
DWIDTH 2 0
BBX 3 8 -1 0
BITMAP
A0
00
40
40
40
40
40
40
ENDCHAR
STARTCHAR U+03CB
ENCODING 971
SWIDTH 545 0
DWIDTH 6 0
BBX 5 8 0 0
BITMAP
50
00
88
88
88
88
88
70
ENDCHAR
STARTCHAR U+03CC
ENCODING 972
SWIDTH 545 0
DWIDTH 6 0
BBX 5 9 0 0
BITMAP
10
20
00
70
88
88
88
88
70
ENDCHAR
STARTCHAR U+03CD
ENCODING 973
SWIDTH 545 0
DWIDTH 6 0
BBX 5 9 0 0
BITMAP
10
20
00
88
88
88
88
88
70
ENDCHAR
STARTCHAR U+03CE
ENCODING 974
SWIDTH 727 0
DWIDTH 8 0
BBX 7 9 0 0
BITMAP
08
10
00
44
92
92
92
92
6C
ENDCHAR
STARTCHAR U+0400
ENCODING 1024
SWIDTH 545 0
DWIDTH 6 0
BBX 5 11 0 0
BITMAP
40
20
00
F8
80
80
F0
80
80
80
F8
ENDCHAR
STARTCHAR U+0401
ENCODING 1025
SWIDTH 545 0
DWIDTH 6 0
BBX 5 10 0 0
BITMAP
50
00
F8
80
80
F0
80
80
80
F8
ENDCHAR
STARTCHAR U+0402
ENCODING 1026
SWIDTH 636 0
DWIDTH 7 0
BBX 6 8 0 0
BITMAP
F0
40
40
78
44
44
44
58
ENDCHAR
STARTCHAR U+0403
ENCODING 1027
SWIDTH 545 0
DWIDTH 6 0
BBX 5 11 0 0
BITMAP
10
20
00
F8
80
80
80
80
80
80
80
ENDCHAR
STARTCHAR U+0404
ENCODING 1028
SWIDTH 545 0
DWIDTH 6 0
BBX 5 8 0 0
BITMAP
70
88
80
F0
80
80
88
70
ENDCHAR
STARTCHAR U+0405
ENCODING 1029
SWIDTH 545 0
DWIDTH 6 0
BBX 5 8 0 0
BITMAP
70
88
80
70
08
08
88
70
ENDCHAR
STARTCHAR U+0406
ENCODING 1030
SWIDTH 181 0
DWIDTH 2 0
BBX 1 8 0 0
BITMAP
80
80
80
80
80
80
80
80
ENDCHAR
STARTCHAR U+0407
ENCODING 1031
SWIDTH 181 0
DWIDTH 2 0
BBX 3 10 -1 0
BITMAP
A0
00
40
40
40
40
40
40
40
40
ENDCHAR
STARTCHAR U+0408
ENCODING 1032
SWIDTH 545 0
DWIDTH 6 0
BBX 5 8 0 0
BITMAP
08
08
08
08
08
08
88
70
ENDCHAR
STARTCHAR U+0409
ENCODING 1033
SWIDTH 1000 0
DWIDTH 11 0
BBX 10 8 0 0
BITMAP
7C00
4400
4400
4780
4440
4440
4440
8780
ENDCHAR
STARTCHAR U+040A
ENCODING 1034
SWIDTH 1000 0
DWIDTH 11 0
BBX 10 8 0 0
BITMAP
8400
8400
8400
FF80
8440
8440
8440
8780
ENDCHAR
STARTCHAR U+040B
ENCODING 1035
SWIDTH 636 0
DWIDTH 7 0
BBX 6 8 0 0
BITMAP
F0
40
78
44
44
44
44
44
ENDCHAR
STARTCHAR U+040C
ENCODING 1036
SWIDTH 636 0
DWIDTH 7 0
BBX 6 11 0 0
BITMAP
10
20
00
84
88
90
A0
D0
88
88
84
ENDCHAR
STARTCHAR U+040D
ENCODING 1037
SWIDTH 636 0
DWIDTH 7 0
BBX 6 11 0 0
BITMAP
20
10
00
84
8C
8C
94
A4
C4
C4
84
ENDCHAR
STARTCHAR U+040E
ENCODING 1038
SWIDTH 545 0
DWIDTH 6 0
BBX 5 11 0 0
BITMAP
50
20
00
88
88
50
50
20
20
20
C0
ENDCHAR
STARTCHAR U+040F
ENCODING 1039
SWIDTH 545 0
DWIDTH 6 0
BBX 5 9 0 -1
BITMAP
88
88
88
88
88
88
88
F8
20
ENDCHAR
STARTCHAR U+0410
ENCODING 1040
SWIDTH 727 0
DWIDTH 8 0
BBX 7 8 0 0
BITMAP
10
10
28
28
44
7C
82
82
ENDCHAR
STARTCHAR U+0411
ENCODING 1041
SWIDTH 545 0
DWIDTH 6 0
BBX 5 8 0 0
BITMAP
F8
80
80
F0
88
88
88
F0
ENDCHAR
STARTCHAR U+0412
ENCODING 1042
SWIDTH 545 0
DWIDTH 6 0
BBX 5 8 0 0
BITMAP
F0
88
88
F0
88
88
88
F0
ENDCHAR
STARTCHAR U+0413
ENCODING 1043
SWIDTH 545 0
DWIDTH 6 0
BBX 5 8 0 0
BITMAP
F8
80
80
80
80
80
80
80
ENDCHAR
STARTCHAR U+0414
ENCODING 1044
SWIDTH 727 0
DWIDTH 8 0
BBX 7 9 0 -1
BITMAP
3C
24
24
24
44
44
44
FE
82
ENDCHAR
STARTCHAR U+0415
ENCODING 1045
SWIDTH 545 0
DWIDTH 6 0
BBX 5 8 0 0
BITMAP
F8
80
80
F0
80
80
80
F8
ENDCHAR
STARTCHAR U+0416
ENCODING 1046
SWIDTH 909 0
DWIDTH 10 0
BBX 9 8 0 0
BITMAP
8880
4900
4900
3E00
2A00
4900
4900
8880
ENDCHAR
STARTCHAR U+0417
ENCODING 1047
SWIDTH 545 0
DWIDTH 6 0
BBX 5 8 0 0
BITMAP
70
88
08
30
08
08
88
70
ENDCHAR
STARTCHAR U+0418
ENCODING 1048
SWIDTH 636 0
DWIDTH 7 0
BBX 6 8 0 0
BITMAP
84
8C
8C
94
A4
C4
C4
84
ENDCHAR
STARTCHAR U+0419
ENCODING 1049
SWIDTH 636 0
DWIDTH 7 0
BBX 6 11 0 0
BITMAP
48
30
00
84
8C
8C
94
A4
C4
C4
84
ENDCHAR
STARTCHAR U+041A
ENCODING 1050
SWIDTH 636 0
DWIDTH 7 0
BBX 6 8 0 0
BITMAP
84
88
90
A0
D0
88
88
84
ENDCHAR
STARTCHAR U+041B
ENCODING 1051
SWIDTH 636 0
DWIDTH 7 0
BBX 6 8 0 0
BITMAP
7C
44
44
44
44
44
44
84
ENDCHAR
STARTCHAR U+041C
ENCODING 1052
SWIDTH 727 0
DWIDTH 8 0
BBX 7 8 0 0
BITMAP
82
82
C6
C6
AA
AA
92
92
ENDCHAR
STARTCHAR U+041D
ENCODING 1053
SWIDTH 636 0
DWIDTH 7 0
BBX 6 8 0 0
BITMAP
84
84
84
FC
84
84
84
84
ENDCHAR
STARTCHAR U+041E
ENCODING 1054
SWIDTH 636 0
DWIDTH 7 0
BBX 6 8 0 0
BITMAP
78
84
84
84
84
84
84
78
ENDCHAR
STARTCHAR U+041F
ENCODING 1055
SWIDTH 636 0
DWIDTH 7 0
BBX 6 8 0 0
BITMAP
FC
84
84
84
84
84
84
84
ENDCHAR
STARTCHAR U+0420
ENCODING 1056
SWIDTH 636 0
DWIDTH 7 0
BBX 6 8 0 0
BITMAP
F8
84
84
84
F8
80
80
80
ENDCHAR
STARTCHAR U+0421
ENCODING 1057
SWIDTH 636 0
DWIDTH 7 0
BBX 6 8 0 0
BITMAP
78
84
84
80
80
84
84
78
ENDCHAR
STARTCHAR U+0422
ENCODING 1058
SWIDTH 727 0
DWIDTH 8 0
BBX 7 8 0 0
BITMAP
FE
10
10
10
10
10
10
10
ENDCHAR
STARTCHAR U+0423
ENCODING 1059
SWIDTH 636 0
DWIDTH 7 0
BBX 6 8 0 0
BITMAP
84
84
48
48
30
30
20
C0
ENDCHAR
STARTCHAR U+0424
ENCODING 1060
SWIDTH 727 0
DWIDTH 8 0
BBX 7 8 0 0
BITMAP
10
7C
92
92
92
92
7C
10
ENDCHAR
STARTCHAR U+0425
ENCODING 1061
SWIDTH 636 0
DWIDTH 7 0
BBX 6 8 0 0
BITMAP
84
48
48
30
30
48
48
84
ENDCHAR
STARTCHAR U+0426
ENCODING 1062
SWIDTH 545 0
DWIDTH 6 0
BBX 5 9 0 -1
BITMAP
88
88
88
88
88
88
88
F8
08
ENDCHAR
STARTCHAR U+0427
ENCODING 1063
SWIDTH 545 0
DWIDTH 6 0
BBX 5 8 0 0
BITMAP
88
88
88
78
08
08
08
08
ENDCHAR
STARTCHAR U+0428
ENCODING 1064
SWIDTH 909 0
DWIDTH 10 0
BBX 9 8 0 0
BITMAP
8880
8880
8880
8880
8880
8880
8880
FF80
ENDCHAR
STARTCHAR U+0429
ENCODING 1065
SWIDTH 909 0
DWIDTH 10 0
BBX 9 9 0 -1
BITMAP
8880
8880
8880
8880
8880
8880
8880
FF80
0080
ENDCHAR
STARTCHAR U+042A
ENCODING 1066
SWIDTH 636 0
DWIDTH 7 0
BBX 6 8 0 0
BITMAP
C0
40
40
78
44
44
44
78
ENDCHAR
STARTCHAR U+042B
ENCODING 1067
SWIDTH 727 0
DWIDTH 8 0
BBX 7 8 0 0
BITMAP
82
82
82
F2
8A
8A
8A
F2
ENDCHAR
STARTCHAR U+042C
ENCODING 1068
SWIDTH 545 0
DWIDTH 6 0
BBX 5 8 0 0
BITMAP
80
80
80
F0
88
88
88
F0
ENDCHAR
STARTCHAR U+042D
ENCODING 1069
SWIDTH 636 0
DWIDTH 7 0
BBX 6 8 0 0
BITMAP
70
88
04
3C
04
04
88
70
ENDCHAR
STARTCHAR U+042E
ENCODING 1070
SWIDTH 818 0
DWIDTH 9 0
BBX 8 8 0 0
BITMAP
9E
A1
A1
E1
A1
A1
A1
9E
ENDCHAR
STARTCHAR U+042F
ENCODING 1071
SWIDTH 545 0
DWIDTH 6 0
BBX 5 8 0 0
BITMAP
78
88
88
88
78
48
88
88
ENDCHAR
STARTCHAR U+0430
ENCODING 1072
SWIDTH 545 0
DWIDTH 6 0
BBX 5 6 0 0
BITMAP
70
88
78
88
88
78
ENDCHAR
STARTCHAR U+0431
ENCODING 1073
SWIDTH 545 0
DWIDTH 6 0
BBX 5 8 0 0
BITMAP
78
80
F0
88
88
88
88
70
ENDCHAR
STARTCHAR U+0432
ENCODING 1074
SWIDTH 545 0
DWIDTH 6 0
BBX 5 6 0 0
BITMAP
F0
88
F0
88
88
F0
ENDCHAR
STARTCHAR U+0433
ENCODING 1075
SWIDTH 454 0
DWIDTH 5 0
BBX 4 6 0 0
BITMAP
F0
80
80
80
80
80
ENDCHAR
STARTCHAR U+0434
ENCODING 1076
SWIDTH 636 0
DWIDTH 7 0
BBX 6 7 0 -1
BITMAP
38
28
48
48
48
FC
84
ENDCHAR
STARTCHAR U+0435
ENCODING 1077
SWIDTH 545 0
DWIDTH 6 0
BBX 5 6 0 0
BITMAP
70
88
F8
80
88
70
ENDCHAR
STARTCHAR U+0436
ENCODING 1078
SWIDTH 727 0
DWIDTH 8 0
BBX 7 6 0 0
BITMAP
92
54
38
54
54
92
ENDCHAR
STARTCHAR U+0437
ENCODING 1079
SWIDTH 454 0
DWIDTH 5 0
BBX 4 6 0 0
BITMAP
60
90
20
10
90
60
ENDCHAR
STARTCHAR U+0438
ENCODING 1080
SWIDTH 545 0
DWIDTH 6 0
BBX 5 6 0 0
BITMAP
88
98
A8
C8
88
88
ENDCHAR
STARTCHAR U+0439
ENCODING 1081
SWIDTH 545 0
DWIDTH 6 0
BBX 5 9 0 0
BITMAP
50
20
00
88
98
A8
C8
88
88
ENDCHAR
STARTCHAR U+043A
ENCODING 1082
SWIDTH 545 0
DWIDTH 6 0
BBX 5 6 0 0
BITMAP
88
90
A0
D0
90
88
ENDCHAR
STARTCHAR U+043B
ENCODING 1083
SWIDTH 545 0
DWIDTH 6 0
BBX 5 6 0 0
BITMAP
78
48
48
48
48
88
ENDCHAR
STARTCHAR U+043C
ENCODING 1084
SWIDTH 545 0
DWIDTH 6 0
BBX 5 6 0 0
BITMAP
88
D8
A8
88
88
88
ENDCHAR
STARTCHAR U+043D
ENCODING 1085
SWIDTH 545 0
DWIDTH 6 0
BBX 5 6 0 0
BITMAP
88
88
F8
88
88
88
ENDCHAR
STARTCHAR U+043E
ENCODING 1086
SWIDTH 545 0
DWIDTH 6 0
BBX 5 6 0 0
BITMAP
70
88
88
88
88
70
ENDCHAR
STARTCHAR U+043F
ENCODING 1087
SWIDTH 545 0
DWIDTH 6 0
BBX 5 6 0 0
BITMAP
F8
88
88
88
88
88
ENDCHAR
STARTCHAR U+0440
ENCODING 1088
SWIDTH 545 0
DWIDTH 6 0
BBX 5 8 0 -2
BITMAP
F0
88
88
88
88
F0
80
80
ENDCHAR
STARTCHAR U+0441
ENCODING 1089
SWIDTH 545 0
DWIDTH 6 0
BBX 5 6 0 0
BITMAP
70
88
80
80
88
70
ENDCHAR
STARTCHAR U+0442
ENCODING 1090
SWIDTH 545 0
DWIDTH 6 0
BBX 5 6 0 0
BITMAP
F8
20
20
20
20
20
ENDCHAR
STARTCHAR U+0443
ENCODING 1091
SWIDTH 545 0
DWIDTH 6 0
BBX 5 8 0 -2
BITMAP
88
88
50
50
20
20
20
C0
ENDCHAR
STARTCHAR U+0444
ENCODING 1092
SWIDTH 727 0
DWIDTH 8 0
BBX 7 10 0 -2
BITMAP
10
10
7C
92
92
92
92
7C
10
10
ENDCHAR
STARTCHAR U+0445
ENCODING 1093
SWIDTH 545 0
DWIDTH 6 0
BBX 5 6 0 0
BITMAP
88
50
20
20
50
88
ENDCHAR
STARTCHAR U+0446
ENCODING 1094
SWIDTH 545 0
DWIDTH 6 0
BBX 5 7 0 -1
BITMAP
88
88
88
88
88
F8
08
ENDCHAR
STARTCHAR U+0447
ENCODING 1095
SWIDTH 545 0
DWIDTH 6 0
BBX 5 6 0 0
BITMAP
88
88
88
78
08
08
ENDCHAR
STARTCHAR U+0448
ENCODING 1096
SWIDTH 727 0
DWIDTH 8 0
BBX 7 6 0 0
BITMAP
92
92
92
92
92
FE
ENDCHAR
STARTCHAR U+0449
ENCODING 1097
SWIDTH 727 0
DWIDTH 8 0
BBX 7 7 0 -1
BITMAP
92
92
92
92
92
FE
02
ENDCHAR
STARTCHAR U+044A
ENCODING 1098
SWIDTH 636 0
DWIDTH 7 0
BBX 6 6 0 0
BITMAP
C0
40
78
44
44
78
ENDCHAR
STARTCHAR U+044B
ENCODING 1099
SWIDTH 727 0
DWIDTH 8 0
BBX 7 6 0 0
BITMAP
82
82
F2
8A
8A
F2
ENDCHAR
STARTCHAR U+044C
ENCODING 1100
SWIDTH 545 0
DWIDTH 6 0
BBX 5 6 0 0
BITMAP
80
80
F0
88
88
F0
ENDCHAR
STARTCHAR U+044D
ENCODING 1101
SWIDTH 545 0
DWIDTH 6 0
BBX 5 6 0 0
BITMAP
70
88
38
08
88
70
ENDCHAR
STARTCHAR U+044E
ENCODING 1102
SWIDTH 727 0
DWIDTH 8 0
BBX 7 6 0 0
BITMAP
9C
A2
E2
A2
A2
9C
ENDCHAR
STARTCHAR U+044F
ENCODING 1103
SWIDTH 545 0
DWIDTH 6 0
BBX 5 6 0 0
BITMAP
78
88
78
88
88
88
ENDCHAR
STARTCHAR U+0450
ENCODING 1104
SWIDTH 545 0
DWIDTH 6 0
BBX 5 9 0 0
BITMAP
40
20
00
70
88
F8
80
88
70
ENDCHAR
STARTCHAR U+0451
ENCODING 1105
SWIDTH 545 0
DWIDTH 6 0
BBX 5 8 0 0
BITMAP
50
00
70
88
F8
80
88
70
ENDCHAR
STARTCHAR U+0452
ENCODING 1106
SWIDTH 545 0
DWIDTH 6 0
BBX 6 9 -1 -1
BITMAP
40
F0
40
78
44
44
44
44
18
ENDCHAR
STARTCHAR U+0453
ENCODING 1107
SWIDTH 454 0
DWIDTH 5 0
BBX 4 9 0 0
BITMAP
20
40
00
F0
80
80
80
80
80
ENDCHAR
STARTCHAR U+0454
ENCODING 1108
SWIDTH 545 0
DWIDTH 6 0
BBX 5 6 0 0
BITMAP
70
88
E0
80
88
70
ENDCHAR
STARTCHAR U+0455
ENCODING 1109
SWIDTH 545 0
DWIDTH 6 0
BBX 5 6 0 0
BITMAP
70
88
70
08
88
70
ENDCHAR
STARTCHAR U+0456
ENCODING 1110
SWIDTH 181 0
DWIDTH 2 0
BBX 1 8 0 0
BITMAP
80
00
80
80
80
80
80
80
ENDCHAR
STARTCHAR U+0457
ENCODING 1111
SWIDTH 181 0
DWIDTH 2 0
BBX 3 8 -1 0
BITMAP
A0
00
40
40
40
40
40
40
ENDCHAR
STARTCHAR U+0458
ENCODING 1112
SWIDTH 181 0
DWIDTH 2 0
BBX 2 10 -1 -2
BITMAP
40
00
40
40
40
40
40
40
40
80
ENDCHAR
STARTCHAR U+0459
ENCODING 1113
SWIDTH 909 0
DWIDTH 10 0
BBX 9 6 0 0
BITMAP
7800
4800
4F00
4880
4880
8F00
ENDCHAR
STARTCHAR U+045A
ENCODING 1114
SWIDTH 909 0
DWIDTH 10 0
BBX 9 6 0 0
BITMAP
8800
8800
FF00
8880
8880
8F00
ENDCHAR
STARTCHAR U+045B
ENCODING 1115
SWIDTH 636 0
DWIDTH 7 0
BBX 6 8 0 0
BITMAP
40
F0
40
78
44
44
44
44
ENDCHAR
STARTCHAR U+045C
ENCODING 1116
SWIDTH 545 0
DWIDTH 6 0
BBX 5 9 0 0
BITMAP
10
20
00
88
90
A0
D0
90
88
ENDCHAR
STARTCHAR U+045D
ENCODING 1117
SWIDTH 545 0
DWIDTH 6 0
BBX 5 9 0 0
BITMAP
40
20
00
88
98
A8
C8
88
88
ENDCHAR
STARTCHAR U+045E
ENCODING 1118
SWIDTH 545 0
DWIDTH 6 0
BBX 5 11 0 -2
BITMAP
50
20
00
88
88
50
50
20
20
20
C0
ENDCHAR
STARTCHAR U+045F
ENCODING 1119
SWIDTH 545 0
DWIDTH 6 0
BBX 5 7 0 -1
BITMAP
88
88
88
88
88
F8
20
ENDCHAR
STARTCHAR U+1EA0
ENCODING 7840
SWIDTH 727 0
DWIDTH 8 0
BBX 7 10 0 -2
BITMAP
10
10
28
28
44
7C
82
82
00
10
ENDCHAR
STARTCHAR U+1EA1
ENCODING 7841
SWIDTH 545 0
DWIDTH 6 0
BBX 5 8 0 -2
BITMAP
70
88
78
88
88
78
00
20
ENDCHAR
STARTCHAR U+1EA2
ENCODING 7842
SWIDTH 727 0
DWIDTH 8 0
BBX 7 11 0 0
BITMAP
30
10
00
10
10
28
28
44
7C
82
82
ENDCHAR
STARTCHAR U+1EA3
ENCODING 7843
SWIDTH 545 0
DWIDTH 6 0
BBX 5 9 0 0
BITMAP
60
20
00
70
88
78
88
88
78
ENDCHAR
STARTCHAR U+1EA4
ENCODING 7844
SWIDTH 727 0
DWIDTH 8 0
BBX 7 14 0 0
BITMAP
08
10
00
10
28
00
10
10
28
28
44
7C
82
82
ENDCHAR
STARTCHAR U+1EA5
ENCODING 7845
SWIDTH 545 0
DWIDTH 6 0
BBX 5 12 0 0
BITMAP
10
20
00
20
50
00
70
88
78
88
88
78
ENDCHAR
STARTCHAR U+1EA6
ENCODING 7846
SWIDTH 727 0
DWIDTH 8 0
BBX 7 14 0 0
BITMAP
20
10
00
10
28
00
10
10
28
28
44
7C
82
82
ENDCHAR
STARTCHAR U+1EA7
ENCODING 7847
SWIDTH 545 0
DWIDTH 6 0
BBX 5 12 0 0
BITMAP
40
20
00
20
50
00
70
88
78
88
88
78
ENDCHAR
STARTCHAR U+1EA8
ENCODING 7848
SWIDTH 727 0
DWIDTH 8 0
BBX 7 14 0 0
BITMAP
30
10
00
10
28
00
10
10
28
28
44
7C
82
82
ENDCHAR
STARTCHAR U+1EA9
ENCODING 7849
SWIDTH 545 0
DWIDTH 6 0
BBX 5 12 0 0
BITMAP
60
20
00
20
50
00
70
88
78
88
88
78
ENDCHAR
STARTCHAR U+1EAA
ENCODING 7850
SWIDTH 727 0
DWIDTH 8 0
BBX 7 14 0 0
BITMAP
14
28
00
10
28
00
10
10
28
28
44
7C
82
82
ENDCHAR
STARTCHAR U+1EAB
ENCODING 7851
SWIDTH 545 0
DWIDTH 6 0
BBX 5 12 0 0
BITMAP
28
50
00
20
50
00
70
88
78
88
88
78
ENDCHAR
STARTCHAR U+1EAC
ENCODING 7852
SWIDTH 727 0
DWIDTH 8 0
BBX 7 13 0 -2
BITMAP
10
28
00
10
10
28
28
44
7C
82
82
00
10
ENDCHAR
STARTCHAR U+1EAD
ENCODING 7853
SWIDTH 545 0
DWIDTH 6 0
BBX 5 11 0 -2
BITMAP
20
50
00
70
88
78
88
88
78
00
20
ENDCHAR
STARTCHAR U+1EAE
ENCODING 7854
SWIDTH 727 0
DWIDTH 8 0
BBX 7 14 0 0
BITMAP
08
10
00
28
10
00
10
10
28
28
44
7C
82
82
ENDCHAR
STARTCHAR U+1EAF
ENCODING 7855
SWIDTH 545 0
DWIDTH 6 0
BBX 5 12 0 0
BITMAP
10
20
00
50
20
00
70
88
78
88
88
78
ENDCHAR
STARTCHAR U+1EB0
ENCODING 7856
SWIDTH 727 0
DWIDTH 8 0
BBX 7 14 0 0
BITMAP
20
10
00
28
10
00
10
10
28
28
44
7C
82
82
ENDCHAR
STARTCHAR U+1EB1
ENCODING 7857
SWIDTH 545 0
DWIDTH 6 0
BBX 5 12 0 0
BITMAP
40
20
00
50
20
00
70
88
78
88
88
78
ENDCHAR
STARTCHAR U+1EB2
ENCODING 7858
SWIDTH 727 0
DWIDTH 8 0
BBX 7 14 0 0
BITMAP
30
10
00
28
10
00
10
10
28
28
44
7C
82
82
ENDCHAR
STARTCHAR U+1EB3
ENCODING 7859
SWIDTH 545 0
DWIDTH 6 0
BBX 5 12 0 0
BITMAP
60
20
00
50
20
00
70
88
78
88
88
78
ENDCHAR
STARTCHAR U+1EB4
ENCODING 7860
SWIDTH 727 0
DWIDTH 8 0
BBX 7 14 0 0
BITMAP
14
28
00
28
10
00
10
10
28
28
44
7C
82
82
ENDCHAR
STARTCHAR U+1EB5
ENCODING 7861
SWIDTH 545 0
DWIDTH 6 0
BBX 5 12 0 0
BITMAP
28
50
00
50
20
00
70
88
78
88
88
78
ENDCHAR
STARTCHAR U+1EB6
ENCODING 7862
SWIDTH 727 0
DWIDTH 8 0
BBX 7 13 0 -2
BITMAP
28
10
00
10
10
28
28
44
7C
82
82
00
10
ENDCHAR
STARTCHAR U+1EB7
ENCODING 7863
SWIDTH 545 0
DWIDTH 6 0
BBX 5 11 0 -2
BITMAP
50
20
00
70
88
78
88
88
78
00
20
ENDCHAR
STARTCHAR U+1EB8
ENCODING 7864
SWIDTH 545 0
DWIDTH 6 0
BBX 5 10 0 -2
BITMAP
F8
80
80
F0
80
80
80
F8
00
20
ENDCHAR
STARTCHAR U+1EB9
ENCODING 7865
SWIDTH 545 0
DWIDTH 6 0
BBX 5 8 0 -2
BITMAP
70
88
F8
80
88
70
00
20
ENDCHAR
STARTCHAR U+1EBA
ENCODING 7866
SWIDTH 545 0
DWIDTH 6 0
BBX 5 11 0 0
BITMAP
60
20
00
F8
80
80
F0
80
80
80
F8
ENDCHAR
STARTCHAR U+1EBB
ENCODING 7867
SWIDTH 545 0
DWIDTH 6 0
BBX 5 9 0 0
BITMAP
60
20
00
70
88
F8
80
88
70
ENDCHAR
STARTCHAR U+1EBC
ENCODING 7868
SWIDTH 545 0
DWIDTH 6 0
BBX 5 11 0 0
BITMAP
28
50
00
F8
80
80
F0
80
80
80
F8
ENDCHAR
STARTCHAR U+1EBD
ENCODING 7869
SWIDTH 545 0
DWIDTH 6 0
BBX 5 9 0 0
BITMAP
28
50
00
70
88
F8
80
88
70
ENDCHAR
STARTCHAR U+1EBE
ENCODING 7870
SWIDTH 545 0
DWIDTH 6 0
BBX 5 14 0 0
BITMAP
10
20
00
20
50
00
F8
80
80
F0
80
80
80
F8
ENDCHAR
STARTCHAR U+1EBF
ENCODING 7871
SWIDTH 545 0
DWIDTH 6 0
BBX 5 12 0 0
BITMAP
10
20
00
20
50
00
70
88
F8
80
88
70
ENDCHAR
STARTCHAR U+1EC0
ENCODING 7872
SWIDTH 545 0
DWIDTH 6 0
BBX 5 14 0 0
BITMAP
40
20
00
20
50
00
F8
80
80
F0
80
80
80
F8
ENDCHAR
STARTCHAR U+1EC1
ENCODING 7873
SWIDTH 545 0
DWIDTH 6 0
BBX 5 12 0 0
BITMAP
40
20
00
20
50
00
70
88
F8
80
88
70
ENDCHAR
STARTCHAR U+1EC2
ENCODING 7874
SWIDTH 545 0
DWIDTH 6 0
BBX 5 14 0 0
BITMAP
60
20
00
20
50
00
F8
80
80
F0
80
80
80
F8
ENDCHAR
STARTCHAR U+1EC3
ENCODING 7875
SWIDTH 545 0
DWIDTH 6 0
BBX 5 12 0 0
BITMAP
60
20
00
20
50
00
70
88
F8
80
88
70
ENDCHAR
STARTCHAR U+1EC4
ENCODING 7876
SWIDTH 545 0
DWIDTH 6 0
BBX 5 14 0 0
BITMAP
28
50
00
20
50
00
F8
80
80
F0
80
80
80
F8
ENDCHAR
STARTCHAR U+1EC5
ENCODING 7877
SWIDTH 545 0
DWIDTH 6 0
BBX 5 12 0 0
BITMAP
28
50
00
20
50
00
70
88
F8
80
88
70
ENDCHAR
STARTCHAR U+1EC6
ENCODING 7878
SWIDTH 545 0
DWIDTH 6 0
BBX 5 13 0 -2
BITMAP
20
50
00
F8
80
80
F0
80
80
80
F8
00
20
ENDCHAR
STARTCHAR U+1EC7
ENCODING 7879
SWIDTH 545 0
DWIDTH 6 0
BBX 5 11 0 -2
BITMAP
20
50
00
70
88
F8
80
88
70
00
20
ENDCHAR
STARTCHAR U+1EC8
ENCODING 7880
SWIDTH 181 0
DWIDTH 2 0
BBX 2 11 -1 0
BITMAP
C0
40
00
40
40
40
40
40
40
40
40
ENDCHAR
STARTCHAR U+1EC9
ENCODING 7881
SWIDTH 181 0
DWIDTH 2 0
BBX 2 9 -1 0
BITMAP
C0
40
00
40
40
40
40
40
40
ENDCHAR
STARTCHAR U+1ECA
ENCODING 7882
SWIDTH 181 0
DWIDTH 2 0
BBX 1 10 0 -2
BITMAP
80
80
80
80
80
80
80
80
00
80
ENDCHAR
STARTCHAR U+1ECB
ENCODING 7883
SWIDTH 181 0
DWIDTH 2 0
BBX 1 10 0 -2
BITMAP
80
00
80
80
80
80
80
80
00
80
ENDCHAR
STARTCHAR U+1ECC
ENCODING 7884
SWIDTH 636 0
DWIDTH 7 0
BBX 6 10 0 -2
BITMAP
78
84
84
84
84
84
84
78
00
10
ENDCHAR
STARTCHAR U+1ECD
ENCODING 7885
SWIDTH 545 0
DWIDTH 6 0
BBX 5 8 0 -2
BITMAP
70
88
88
88
88
70
00
20
ENDCHAR
STARTCHAR U+1ECE
ENCODING 7886
SWIDTH 636 0
DWIDTH 7 0
BBX 6 11 0 0
BITMAP
30
10
00
78
84
84
84
84
84
84
78
ENDCHAR
STARTCHAR U+1ECF
ENCODING 7887
SWIDTH 545 0
DWIDTH 6 0
BBX 5 9 0 0
BITMAP
60
20
00
70
88
88
88
88
70
ENDCHAR
STARTCHAR U+1ED0
ENCODING 7888
SWIDTH 636 0
DWIDTH 7 0
BBX 6 14 0 0
BITMAP
08
10
00
10
28
00
78
84
84
84
84
84
84
78
ENDCHAR
STARTCHAR U+1ED1
ENCODING 7889
SWIDTH 545 0
DWIDTH 6 0
BBX 5 12 0 0
BITMAP
10
20
00
20
50
00
70
88
88
88
88
70
ENDCHAR
STARTCHAR U+1ED2
ENCODING 7890
SWIDTH 636 0
DWIDTH 7 0
BBX 6 14 0 0
BITMAP
20
10
00
10
28
00
78
84
84
84
84
84
84
78
ENDCHAR
STARTCHAR U+1ED3
ENCODING 7891
SWIDTH 545 0
DWIDTH 6 0
BBX 5 12 0 0
BITMAP
40
20
00
20
50
00
70
88
88
88
88
70
ENDCHAR
STARTCHAR U+1ED4
ENCODING 7892
SWIDTH 636 0
DWIDTH 7 0
BBX 6 14 0 0
BITMAP
30
10
00
10
28
00
78
84
84
84
84
84
84
78
ENDCHAR
STARTCHAR U+1ED5
ENCODING 7893
SWIDTH 545 0
DWIDTH 6 0
BBX 5 12 0 0
BITMAP
60
20
00
20
50
00
70
88
88
88
88
70
ENDCHAR
STARTCHAR U+1ED6
ENCODING 7894
SWIDTH 636 0
DWIDTH 7 0
BBX 6 14 0 0
BITMAP
14
28
00
10
28
00
78
84
84
84
84
84
84
78
ENDCHAR
STARTCHAR U+1ED7
ENCODING 7895
SWIDTH 545 0
DWIDTH 6 0
BBX 5 12 0 0
BITMAP
28
50
00
20
50
00
70
88
88
88
88
70
ENDCHAR
STARTCHAR U+1ED8
ENCODING 7896
SWIDTH 636 0
DWIDTH 7 0
BBX 6 13 0 -2
BITMAP
10
28
00
78
84
84
84
84
84
84
78
00
10
ENDCHAR
STARTCHAR U+1ED9
ENCODING 7897
SWIDTH 545 0
DWIDTH 6 0
BBX 5 11 0 -2
BITMAP
20
50
00
70
88
88
88
88
70
00
20
ENDCHAR
STARTCHAR U+1EDA
ENCODING 7898
SWIDTH 727 0
DWIDTH 8 0
BBX 7 11 0 0
BITMAP
10
20
00
7A
86
84
84
84
84
84
78
ENDCHAR
STARTCHAR U+1EDB
ENCODING 7899
SWIDTH 636 0
DWIDTH 7 0
BBX 6 9 0 0
BITMAP
10
20
00
74
8C
88
88
88
70
ENDCHAR
STARTCHAR U+1EDC
ENCODING 7900
SWIDTH 727 0
DWIDTH 8 0
BBX 7 11 0 0
BITMAP
20
10
00
7A
86
84
84
84
84
84
78
ENDCHAR
STARTCHAR U+1EDD
ENCODING 7901
SWIDTH 636 0
DWIDTH 7 0
BBX 6 9 0 0
BITMAP
40
20
00
74
8C
88
88
88
70
ENDCHAR
STARTCHAR U+1EDE
ENCODING 7902
SWIDTH 727 0
DWIDTH 8 0
BBX 7 11 0 0
BITMAP
30
10
00
7A
86
84
84
84
84
84
78
ENDCHAR
STARTCHAR U+1EDF
ENCODING 7903
SWIDTH 636 0
DWIDTH 7 0
BBX 6 9 0 0
BITMAP
60
20
00
74
8C
88
88
88
70
ENDCHAR
STARTCHAR U+1EE0
ENCODING 7904
SWIDTH 727 0
DWIDTH 8 0
BBX 7 11 0 0
BITMAP
28
50
00
7A
86
84
84
84
84
84
78
ENDCHAR
STARTCHAR U+1EE1
ENCODING 7905
SWIDTH 636 0
DWIDTH 7 0
BBX 6 9 0 0
BITMAP
28
50
00
74
8C
88
88
88
70
ENDCHAR
STARTCHAR U+1EE2
ENCODING 7906
SWIDTH 727 0
DWIDTH 8 0
BBX 7 10 0 -2
BITMAP
7A
86
84
84
84
84
84
78
00
10
ENDCHAR
STARTCHAR U+1EE3
ENCODING 7907
SWIDTH 636 0
DWIDTH 7 0
BBX 6 8 0 -2
BITMAP
74
8C
88
88
88
70
00
20
ENDCHAR
STARTCHAR U+1EE4
ENCODING 7908
SWIDTH 636 0
DWIDTH 7 0
BBX 6 10 0 -2
BITMAP
84
84
84
84
84
84
84
78
00
10
ENDCHAR
STARTCHAR U+1EE5
ENCODING 7909
SWIDTH 545 0
DWIDTH 6 0
BBX 5 8 0 -2
BITMAP
88
88
88
88
98
68
00
20
ENDCHAR
STARTCHAR U+1EE6
ENCODING 7910
SWIDTH 636 0
DWIDTH 7 0
BBX 6 11 0 0
BITMAP
30
10
00
84
84
84
84
84
84
84
78
ENDCHAR
STARTCHAR U+1EE7
ENCODING 7911
SWIDTH 545 0
DWIDTH 6 0
BBX 5 9 0 0
BITMAP
60
20
00
88
88
88
88
98
68
ENDCHAR
STARTCHAR U+1EE8
ENCODING 7912
SWIDTH 727 0
DWIDTH 8 0
BBX 7 11 0 0
BITMAP
10
20
02
86
84
84
84
84
84
84
78
ENDCHAR
STARTCHAR U+1EE9
ENCODING 7913
SWIDTH 636 0
DWIDTH 7 0
BBX 6 9 0 0
BITMAP
10
20
04
8C
88
88
88
98
68
ENDCHAR
STARTCHAR U+1EEA
ENCODING 7914
SWIDTH 727 0
DWIDTH 8 0
BBX 7 11 0 0
BITMAP
20
10
02
86
84
84
84
84
84
84
78
ENDCHAR
STARTCHAR U+1EEB
ENCODING 7915
SWIDTH 636 0
DWIDTH 7 0
BBX 6 9 0 0
BITMAP
40
20
04
8C
88
88
88
98
68
ENDCHAR
STARTCHAR U+1EEC
ENCODING 7916
SWIDTH 727 0
DWIDTH 8 0
BBX 7 11 0 0
BITMAP
30
10
02
86
84
84
84
84
84
84
78
ENDCHAR
STARTCHAR U+1EED
ENCODING 7917
SWIDTH 636 0
DWIDTH 7 0
BBX 6 9 0 0
BITMAP
60
20
04
8C
88
88
88
98
68
ENDCHAR
STARTCHAR U+1EEE
ENCODING 7918
SWIDTH 727 0
DWIDTH 8 0
BBX 7 11 0 0
BITMAP
28
50
02
86
84
84
84
84
84
84
78
ENDCHAR
STARTCHAR U+1EEF
ENCODING 7919
SWIDTH 636 0
DWIDTH 7 0
BBX 6 9 0 0
BITMAP
28
50
04
8C
88
88
88
98
68
ENDCHAR
STARTCHAR U+1EF0
ENCODING 7920
SWIDTH 727 0
DWIDTH 8 0
BBX 7 11 0 -2
BITMAP
02
86
84
84
84
84
84
84
78
00
10
ENDCHAR
STARTCHAR U+1EF1
ENCODING 7921
SWIDTH 636 0
DWIDTH 7 0
BBX 6 9 0 -2
BITMAP
04
8C
88
88
88
98
68
00
20
ENDCHAR
STARTCHAR U+1EF2
ENCODING 7922
SWIDTH 727 0
DWIDTH 8 0
BBX 7 11 0 0
BITMAP
20
10
00
82
44
44
28
10
10
10
10
ENDCHAR
STARTCHAR U+1EF3
ENCODING 7923
SWIDTH 545 0
DWIDTH 6 0
BBX 5 11 0 -2
BITMAP
40
20
00
88
88
50
50
20
20
20
C0
ENDCHAR
STARTCHAR U+1EF4
ENCODING 7924
SWIDTH 727 0
DWIDTH 8 0
BBX 7 10 0 -2
BITMAP
82
44
44
28
10
10
10
10
00
10
ENDCHAR
STARTCHAR U+1EF5
ENCODING 7925
SWIDTH 545 0
DWIDTH 6 0
BBX 5 8 0 -2
BITMAP
88
88
50
50
20
20
20
C8
ENDCHAR
STARTCHAR U+1EF6
ENCODING 7926
SWIDTH 727 0
DWIDTH 8 0
BBX 7 11 0 0
BITMAP
30
10
00
82
44
44
28
10
10
10
10
ENDCHAR
STARTCHAR U+1EF7
ENCODING 7927
SWIDTH 545 0
DWIDTH 6 0
BBX 5 11 0 -2
BITMAP
60
20
00
88
88
50
50
20
20
20
C0
ENDCHAR
STARTCHAR U+1EF8
ENCODING 7928
SWIDTH 727 0
DWIDTH 8 0
BBX 7 11 0 0
BITMAP
14
28
00
82
44
44
28
10
10
10
10
ENDCHAR
STARTCHAR U+1EF9
ENCODING 7929
SWIDTH 545 0
DWIDTH 6 0
BBX 5 11 0 -2
BITMAP
28
50
00
88
88
50
50
20
20
20
C0
ENDCHAR
ENDFONT
